<svg width="550" height="487" viewBox="0 0 550 487" fill="none" xmlns="http://www.w3.org/2000/svg">
<path d="M374.744 120.776C378.442 120.776 381.439 117.814 381.439 114.161C381.439 110.507 378.442 107.546 374.744 107.546C371.047 107.546 368.049 110.507 368.049 114.161C368.049 117.814 371.047 120.776 374.744 120.776Z" fill="#EC615B"/>
<path d="M381.85 102.432C383.574 102.432 384.972 101.051 384.972 99.3479C384.972 97.6445 383.574 96.2635 381.85 96.2635C380.126 96.2635 378.728 97.6445 378.728 99.3479C378.728 101.051 380.126 102.432 381.85 102.432Z" fill="#EC615B"/>
<path d="M177.183 62.2954C178.952 62.2954 180.387 60.8781 180.387 59.1299C180.387 57.3816 178.952 55.9644 177.183 55.9644C175.414 55.9644 173.979 57.3816 173.979 59.1299C173.979 60.8781 175.414 62.2954 177.183 62.2954Z" fill="#EC615B"/>
<path d="M386.82 432.781C389.814 432.781 392.241 430.382 392.241 427.424C392.241 424.465 389.814 422.067 386.82 422.067C383.826 422.067 381.398 424.465 381.398 427.424C381.398 430.382 383.826 432.781 386.82 432.781Z" fill="#EC615B"/>
<path d="M140.094 451.124C141.478 451.124 142.599 450.016 142.599 448.649C142.599 447.281 141.478 446.173 140.094 446.173C138.71 446.173 137.588 447.281 137.588 448.649C137.588 450.016 138.71 451.124 140.094 451.124Z" fill="#EC615B"/>
<path d="M171.392 268.256C172.821 268.256 173.979 267.111 173.979 265.699C173.979 264.287 172.821 263.142 171.392 263.142C169.963 263.142 168.804 264.287 168.804 265.699C168.804 267.111 169.963 268.256 171.392 268.256Z" fill="#EC615B"/>
<path d="M176.485 281.283C177.868 281.283 178.99 280.175 178.99 278.807C178.99 277.44 177.868 276.332 176.485 276.332C175.101 276.332 173.979 277.44 173.979 278.807C173.979 280.175 175.101 281.283 176.485 281.283Z" fill="#5222D0"/>
<path d="M173.486 350.275C176.072 350.275 178.169 348.203 178.169 345.648C178.169 343.093 176.072 341.022 173.486 341.022C170.9 341.022 168.804 343.093 168.804 345.648C168.804 348.203 170.9 350.275 173.486 350.275Z" fill="#5222D0"/>
<path d="M371.007 87.3352C372.64 87.3352 373.964 86.027 373.964 84.4132C373.964 82.7994 372.64 81.4912 371.007 81.4912C369.373 81.4912 368.049 82.7994 368.049 84.4132C368.049 86.027 369.373 87.3352 371.007 87.3352Z" fill="#5222D0"/>
<path d="M258.508 92.4488C259.937 92.4488 261.095 91.3041 261.095 89.8921C261.095 88.48 259.937 87.3353 258.508 87.3353C257.079 87.3353 255.92 88.48 255.92 89.8921C255.92 91.3041 257.079 92.4488 258.508 92.4488Z" fill="#5222D0"/>
<path d="M27.8002 292.443C28.889 292.443 29.7717 291.571 29.7717 290.495C29.7717 289.42 28.889 288.547 27.8002 288.547C26.7113 288.547 25.8286 289.42 25.8286 290.495C25.8286 291.571 26.7113 292.443 27.8002 292.443Z" fill="#5222D0"/>
<path d="M379.961 446.173C382.683 446.173 384.889 443.993 384.889 441.303C384.889 438.613 382.683 436.433 379.961 436.433C377.239 436.433 375.032 438.613 375.032 441.303C375.032 443.993 377.239 446.173 379.961 446.173Z" fill="#5222D0"/>
<path d="M432.74 29.2199C434.169 29.2199 435.327 28.0752 435.327 26.6632C435.327 25.2511 434.169 24.1064 432.74 24.1064C431.31 24.1064 430.152 25.2511 430.152 26.6632C430.152 28.0752 431.31 29.2199 432.74 29.2199Z" fill="#5222D0"/>
<path d="M181.331 141.595C180.921 139.079 180.551 134.047 184.617 134.452C186.096 134.615 186.917 135.913 188.56 135.345C191.641 134.29 190.942 130.354 192.216 128.081C194.31 124.428 198.377 129.745 201.498 128C202.525 127.432 202.771 126.376 202.73 125.281C202.648 121.182 206.304 121.466 209.302 122.277C210.082 122.48 210.411 121.303 209.631 121.101C206.591 120.289 201.539 120.005 201.416 124.347C201.375 125.402 201.95 126.458 200.389 127.107C199.896 127.31 199.075 127.066 198.623 126.945C197.555 126.62 196.61 125.889 195.501 125.605C194.064 125.199 192.667 125.484 191.682 126.62C190.45 128.081 190.491 130.07 189.916 131.774C189.299 133.6 188.108 134.655 186.096 133.763C185.274 133.397 184.535 133.073 183.59 133.194C179.36 133.763 179.565 138.836 180.099 141.92C180.263 142.691 181.455 142.366 181.331 141.595Z" fill="#5222D0"/>
<path d="M186.178 143.949C186.507 141.433 188.56 140.337 190.942 140.337C192.216 140.337 193.489 140.54 194.721 140.094C197.514 139.038 196.98 136.035 197.637 133.681C198.869 129.217 204.579 131.977 207.741 131.246C209.877 130.719 211.684 128.609 210.781 126.376C210.493 125.646 209.302 125.971 209.59 126.701C210.986 130.07 206.222 130.272 204.209 130.029C202.73 129.867 201.293 129.623 199.814 129.988C197.473 130.597 196.569 132.302 196.241 134.493C195.953 136.522 195.994 138.754 193.325 139.079C191.887 139.241 190.45 138.836 189.012 139.16C186.712 139.688 185.233 141.595 184.946 143.868C184.823 144.72 186.055 144.72 186.178 143.949Z" fill="#5222D0"/>
<path d="M271.035 44.2763C269.597 46.062 268.078 48.2535 268.776 50.6479C269.351 52.5959 270.912 53.3264 272.801 53.2046C273.91 53.1235 275.06 52.8394 275.964 53.8134C276.662 54.5439 276.21 56.0861 276.005 56.8977C275.676 58.1558 275.06 59.3733 275.183 60.7126C275.389 62.5388 276.867 63.9592 278.757 63.5534C279.537 63.3911 279.208 62.2141 278.428 62.3765C274.855 63.1881 277.319 57.3036 277.483 55.8831C277.607 54.7062 277.401 53.4076 276.498 52.5553C275.594 51.7031 274.485 51.7842 273.335 51.906C271.528 52.1089 269.844 51.5407 269.762 49.3898C269.721 47.7665 270.871 46.3055 271.856 45.088C272.431 44.5604 271.528 43.6676 271.035 44.2763Z" fill="#5222D0"/>
<path d="M280.728 43.6676C278.798 44.4793 277.565 46.4678 278.058 48.5376C278.305 49.471 278.88 50.3638 279.701 50.932C280.687 51.6625 281.837 51.5002 282.823 52.1089C284.671 53.2047 283.193 55.3556 283.275 57.0601C283.316 57.9123 283.521 58.6834 284.26 59.211C285.369 60.0633 287.012 59.7792 287.464 58.3993C287.711 57.6688 286.519 57.3442 286.273 58.0747C284.712 57.8718 284.178 57.1818 284.63 56.0049C284.712 55.5991 284.794 55.1933 284.877 54.7874C284.959 54.3816 285 53.9758 285 53.5699C285 52.7177 284.753 51.8248 284.096 51.2161C283.11 50.3233 281.591 50.6885 280.523 49.958C278.346 48.4564 279.126 45.6156 281.344 44.6822C282.084 44.3981 281.426 43.3835 280.728 43.6676Z" fill="#5222D0"/>
<path d="M12.1513 283.556C11.2066 282.095 11.2066 280.309 12.1513 278.807C13.096 277.346 14.4103 277.306 15.93 276.738C18.0248 275.885 18.0658 273.735 17.9426 271.787C17.9015 271.097 17.8605 270.366 18.0658 269.676C18.5998 268.053 19.9963 268.499 21.2695 268.702C22.0089 268.824 22.7071 268.702 23.3232 268.296C24.1036 267.769 24.5965 266.835 24.8429 265.943C25.0483 265.212 25.0893 264.441 25.2536 263.71C25.3358 263.183 25.5001 262.696 25.7465 262.249C26.4037 261.235 27.1841 261.154 28.1287 262.047C28.3341 262.818 29.5252 262.493 29.3199 261.722C28.5805 259.084 25.2947 260.261 24.4732 262.128C24.1036 262.98 24.0625 263.913 23.8571 264.806C23.7339 265.334 23.6518 265.902 23.3643 266.389C22.7482 267.485 21.5981 267.282 20.5302 267.16C19.257 267.038 18.2712 266.917 17.4497 268.093C16.5051 269.433 16.7515 271.015 16.7515 272.558C16.7926 274.424 16.3818 275.155 14.5336 275.764C13.7942 276.007 13.1781 276.129 12.521 276.616C10.1387 278.28 9.52264 281.729 11.0834 284.124C11.4942 284.814 12.562 284.205 12.1513 283.556Z" fill="#EC615B"/>
<path d="M17.2855 286.356C15.5604 286.112 16.2176 284.246 16.9979 283.515C17.573 282.988 18.3534 282.663 19.0927 282.298C19.9963 281.851 20.8999 281.324 21.5571 280.553C23.3232 278.361 20.7767 275.439 23.241 273.694C25.7054 271.989 32.3182 271.218 30.3878 266.673C30.1003 265.943 29.0324 266.592 29.3199 267.282C30.7164 270.569 23.9393 271.543 22.2142 272.923C21.5981 273.41 21.0642 274.059 20.8177 274.83C20.3249 276.535 21.7624 278.28 20.4892 279.903C19.0105 281.689 15.8479 281.689 15.1086 284.205C14.6568 285.625 15.4372 287.33 16.9979 287.573C17.7373 287.655 18.0658 286.478 17.2855 286.356Z" fill="#EC615B"/>
<path d="M467.528 192.04C466.994 191.107 467.077 190.092 467.652 189.199C468.555 187.901 469.623 188.185 471.02 188.307C471.964 188.388 472.827 188.591 473.73 188.063C475.332 187.089 475.086 185.06 475.373 183.518C476.031 179.906 479.193 183.193 481.329 182.057C482.109 181.651 482.397 180.88 482.561 180.068C482.849 178.485 482.931 173.778 486.011 175.685C486.668 176.091 487.326 175.036 486.627 174.63C483.876 172.966 481.658 175.726 481.411 178.283C481.247 179.744 481.411 181.164 479.44 180.961C478.741 180.88 478.043 180.515 477.345 180.433C476.236 180.312 475.25 180.636 474.634 181.61C473.936 182.747 474.182 184.167 473.895 185.385C473.279 188.144 470.896 186.602 468.966 186.927C466.378 187.373 465.187 190.458 466.419 192.608C466.83 193.339 467.898 192.73 467.528 192.04Z" fill="#EC615B"/>
<path d="M473.648 194.597C472.95 192.73 475.127 190.66 477.016 191.634C477.263 191.756 477.591 191.756 477.756 191.553C478.7 190.539 478.947 189.362 479.357 188.063C480.097 185.709 481.863 185.385 483.999 184.735C486.093 184.086 488.435 182.381 487.572 179.946C487.285 179.216 486.093 179.541 486.381 180.271C487.572 183.477 481.74 183.721 480.015 184.898C477.92 186.359 478.536 188.997 476.934 190.701C477.181 190.66 477.427 190.62 477.673 190.62C474.922 189.199 471.43 192 472.498 194.962C472.745 195.652 473.936 195.368 473.648 194.597Z" fill="#EC615B"/>
<path d="M307.754 205.23C307.836 205.23 308.74 207.421 309.11 207.705C309.685 208.152 310.383 208.192 311.081 208.071C312.313 207.868 313.094 206.975 314.162 206.407C316.462 205.108 316.462 207.34 317.365 208.598C318.392 210.1 319.501 209.369 320.692 208.639C321.473 208.152 322.212 207.827 322.91 208.517C323.28 208.882 323.526 209.491 323.814 209.938C324.266 210.587 324.758 211.114 325.498 211.439C326.196 211.764 326.853 210.709 326.114 210.384C324.43 209.653 324.225 206.894 322.212 206.61C321.267 206.488 320.857 207.016 320.117 207.421C319.214 207.949 318.68 208.314 318.105 207.3C317.858 206.894 317.817 206.326 317.53 205.92C316.215 203.769 314.162 204.946 312.519 206.001C312.231 206.204 311.944 206.407 311.615 206.569C310.917 206.366 310.178 206.163 309.479 205.96C309.192 205.676 309.192 204.986 308.945 204.621C308.535 204.053 308.124 203.891 307.467 204.012C306.645 204.175 306.974 205.352 307.754 205.23Z" fill="#EC615B"/>
<path d="M317.406 201.334C318.639 199.426 321.473 203.404 322.623 203.891C323.321 204.175 323.978 204.175 324.717 203.972C325.046 203.891 325.334 203.728 325.621 203.607C326.73 203.16 327.675 203.444 328.578 204.215C329.893 205.311 330.262 206.772 332.152 207.178C333.261 207.421 334.287 207.097 334.78 206.042C335.109 205.352 334.041 204.702 333.712 205.433C332.562 207.868 329.4 203.079 328.578 202.551C327.059 201.577 326.114 202.389 324.594 202.714C322.171 203.201 321.39 200.522 319.378 199.873C318.187 199.467 317.037 199.67 316.38 200.766C315.887 201.415 316.955 202.024 317.406 201.334Z" fill="#EC615B"/>
<path d="M470.896 272.274C492.706 272.274 514.516 272.274 536.367 272.274C537.147 272.274 537.147 271.056 536.367 271.056C514.557 271.056 492.747 271.056 470.896 271.056C470.116 271.056 470.116 272.274 470.896 272.274Z" fill="#E8E8E8"/>
<path d="M488.763 271.989C488.763 278.28 488.763 284.53 488.763 290.82C488.763 291.591 489.995 291.591 489.995 290.82C489.995 284.53 489.995 278.28 489.995 271.989C489.995 271.218 488.763 271.218 488.763 271.989Z" fill="#E8E8E8"/>
<path d="M519.24 271.381C519.24 262.615 519.24 253.849 519.24 245.083C519.24 244.312 518.007 244.312 518.007 245.083C518.007 253.849 518.007 262.615 518.007 271.381C518.007 272.192 519.24 272.192 519.24 271.381Z" fill="#E8E8E8"/>
<path d="M504.741 245.57C512.996 245.57 521.252 245.57 529.508 245.57C530.288 245.57 530.288 244.352 529.508 244.352C521.252 244.352 512.996 244.352 504.741 244.352C503.96 244.352 503.96 245.57 504.741 245.57Z" fill="#E8E8E8"/>
<path d="M488.517 99.4291C488.517 107.018 488.517 114.607 488.517 122.156C488.517 122.927 489.749 122.927 489.749 122.156C489.749 114.567 489.749 106.978 489.749 99.4291C489.749 98.6581 488.517 98.6581 488.517 99.4291Z" fill="#E8E8E8"/>
<path d="M469.336 123.901C484.163 123.901 498.949 123.901 513.777 123.901C514.557 123.901 514.557 122.683 513.777 122.683C498.949 122.683 484.163 122.683 469.336 122.683C468.514 122.683 468.514 123.901 469.336 123.901Z" fill="#E8E8E8"/>
<path d="M513.366 123.739C513.366 128.771 513.366 133.803 513.366 138.836C513.366 139.607 514.598 139.607 514.598 138.836C514.598 133.803 514.598 128.771 514.598 123.739C514.598 122.968 513.366 122.968 513.366 123.739Z" fill="#E8E8E8"/>
<path d="M100.869 75.769C115.368 75.769 129.908 75.769 144.407 75.769C145.187 75.769 145.187 74.5515 144.407 74.5515C129.908 74.5515 115.368 74.5515 100.869 74.5515C100.089 74.5515 100.048 75.769 100.869 75.769Z" fill="#E8E8E8"/>
<path d="M142.599 75.6473C142.599 79.5433 142.599 83.4393 142.599 87.3353C142.599 88.1064 143.832 88.1064 143.832 87.3353C143.832 83.4393 143.832 79.5433 143.832 75.6473C143.832 74.8357 142.599 74.8357 142.599 75.6473Z" fill="#E8E8E8"/>
<path d="M129.415 74.6733C129.415 68.4235 129.415 62.2143 129.415 55.9644C129.415 55.1933 128.183 55.1933 128.183 55.9644C128.183 62.2143 128.183 68.4235 128.183 74.6733C128.183 75.485 129.415 75.485 129.415 74.6733Z" fill="#E8E8E8"/>
<path d="M14.7389 200.847C24.7607 200.847 34.7826 200.847 44.8044 200.847C45.5848 200.847 45.5848 199.629 44.8044 199.629C34.7826 199.629 24.7607 199.629 14.7389 199.629C13.9585 199.629 13.9585 200.847 14.7389 200.847Z" fill="#E8E8E8"/>
<path d="M33.0986 188.631C33.0986 192.284 33.0986 195.936 33.0986 199.589C33.0986 200.36 34.3308 200.36 34.3308 199.589C34.3308 195.936 34.3308 192.284 34.3308 188.631C34.3308 187.86 33.0986 187.86 33.0986 188.631Z" fill="#E8E8E8"/>
<path d="M25.8697 189.24C31.2092 189.24 36.5487 189.24 41.8882 189.24C42.6686 189.24 42.6686 188.023 41.8882 188.023C36.5487 188.023 31.2092 188.023 25.8697 188.023C25.0483 188.023 25.0483 189.24 25.8697 189.24Z" fill="#E8E8E8"/>
<path d="M206.756 445.118C220.145 445.118 233.535 445.118 246.925 445.118C247.705 445.118 247.705 443.901 246.925 443.901C233.535 443.901 220.145 443.901 206.756 443.901C205.934 443.901 205.934 445.118 206.756 445.118Z" fill="#E8E8E8"/>
<path d="M231.482 443.9C231.482 441.06 231.482 438.219 231.482 435.337C231.482 434.566 230.249 434.566 230.249 435.337C230.249 438.178 230.249 441.019 230.249 443.9C230.249 444.712 231.482 444.712 231.482 443.9Z" fill="#E8E8E8"/>
<path d="M227.744 435.378C233.289 435.378 238.875 435.378 244.42 435.378C245.2 435.378 245.2 434.16 244.42 434.16C238.875 434.16 233.289 434.16 227.744 434.16C226.963 434.16 226.963 435.378 227.744 435.378Z" fill="#E8E8E8"/>
<path d="M15.6836 423.771C29.0734 423.771 42.4632 423.771 55.8531 423.771C56.6335 423.771 56.6335 422.554 55.8531 422.554C42.4632 422.554 29.0734 422.554 15.6836 422.554C14.9032 422.554 14.9032 423.771 15.6836 423.771Z" fill="#E8E8E8"/>
<path d="M34.2486 407.862C34.2486 412.53 34.2486 417.237 34.2486 421.904C34.2486 422.675 35.4808 422.675 35.4808 421.904C35.4808 417.237 35.4808 412.53 35.4808 407.862C35.4808 407.091 34.2486 407.091 34.2486 407.862Z" fill="#E8E8E8"/>
<path d="M34.2486 406.036C28.9091 406.036 23.5286 406.036 18.1891 406.036C17.4087 406.036 17.4087 407.254 18.1891 407.254C23.5286 407.254 28.9091 407.254 34.2486 407.254C35.029 407.254 35.029 406.036 34.2486 406.036Z" fill="#E8E8E8"/>
<path d="M462.189 388.058C460.834 386.719 461.162 384.121 463.257 383.675C464.366 383.431 465.434 384.121 466.502 384.243C467.323 384.365 468.186 384.284 468.72 383.553C469.541 382.498 468.884 381.28 468.843 380.103C468.761 376.41 473.197 376.654 475.414 377.953C475.907 378.237 476.441 377.75 476.318 377.263C475.25 372.19 481.124 368.7 485.149 372.068C485.765 372.555 486.627 371.703 486.011 371.216C481.042 367.076 473.772 371.297 475.127 377.628C475.415 377.384 475.743 377.181 476.031 376.938C474.141 375.802 471.718 375.234 469.705 376.492C468.966 376.938 468.309 377.628 467.98 378.44C467.734 379.008 467.611 379.535 467.652 380.144C467.693 381.24 468.062 381.159 467.241 382.214C466.337 383.391 466.255 382.863 464.982 382.579C464.53 382.457 464.119 382.376 463.627 382.417C462.6 382.457 461.655 382.944 460.998 383.675C459.56 385.258 459.93 387.49 461.368 388.91C461.901 389.478 462.764 388.626 462.189 388.058Z" fill="#E8E8E8"/>
<path d="M470.198 389.275C469.746 385.582 475.866 385.542 477.591 382.985C478.043 382.336 478.207 381.605 478.495 380.915C479.029 379.657 479.974 378.845 481.37 378.48C483.629 377.912 485.97 378.927 488.024 379.779C488.763 380.063 489.092 378.886 488.353 378.602C484.574 377.06 479.481 375.883 477.386 380.428C476.647 382.051 476.4 382.944 474.675 383.797C473.648 384.284 472.581 384.568 471.595 385.136C470.034 386.029 468.802 387.408 469.007 389.275C469.089 390.046 470.321 390.046 470.198 389.275Z" fill="#E8E8E8"/>
<path d="M293.543 271.259C294.364 273.288 295.186 275.358 296.007 277.387C296.089 277.144 296.213 276.941 296.295 276.697C295.843 276.981 295.391 277.265 294.939 277.59C294.241 275.967 294.529 275.561 295.843 276.291C296.623 276.778 296.993 277.834 297.157 278.686C297.527 280.634 297.116 282.663 296.459 284.53C296.295 285.017 296.788 285.341 297.198 285.26C299.663 284.773 300.649 287.695 300.156 289.522C299.786 290.861 299.047 292.038 298.307 293.215C297.897 293.864 298.965 294.473 299.375 293.823C300.69 291.794 302.209 289.278 301.306 286.762C300.608 284.895 298.882 283.718 296.87 284.083C297.116 284.327 297.363 284.57 297.609 284.814C298.431 282.46 298.965 279.497 297.938 277.103C297.24 275.52 295.638 274.303 293.83 274.83C292.434 275.236 291.736 276.616 292.393 277.955C293.502 280.187 295.432 278.686 296.87 277.752C297.075 277.631 297.239 277.306 297.157 277.062C296.336 275.033 295.514 272.963 294.693 270.934C294.447 270.244 293.255 270.529 293.543 271.259Z" fill="#E8E8E8"/>
<path d="M50.6368 79.2592C49.8564 77.3112 52.4851 76.7836 53.7173 77.4735C54.6619 78.0011 55.278 78.9345 55.8531 79.7868C56.387 80.5579 56.962 81.4101 57.2495 82.3029C57.5781 83.074 57.5371 83.8045 57.1263 84.535C55.6888 85.1844 54.9495 85.022 54.9084 84.0886C54.5387 82.7494 55.9763 81.8565 57.2085 81.8971C58.4817 81.9377 59.6729 82.6682 60.5354 83.561C62.014 85.1032 62.548 87.1324 62.3426 89.2021C62.7123 89.0804 63.123 88.9992 63.4927 88.8774C62.6712 87.7005 63.4516 86.4424 64.5605 85.8337C65.5052 85.3467 66.5731 85.4684 67.4767 85.9554C68.9554 86.7265 69.9822 88.1469 70.9269 89.4456C71.3787 90.0949 72.4466 89.4862 71.9948 88.8369C70.434 86.6859 68.0928 83.6828 65.0124 84.3727C62.7533 84.8597 60.9461 87.457 62.4248 89.4862C62.7944 90.0138 63.4926 89.7703 63.5748 89.1615C63.9445 85.3061 61.0693 80.0303 56.4692 80.6796C54.8262 80.9231 53.6351 82.0594 53.6351 83.7234C53.6351 85.022 54.4566 86.3613 55.8531 86.4424C57.496 86.5642 58.605 84.9814 58.6871 83.5204C58.8103 81.4913 57.2085 79.2998 55.9763 77.7982C54.8262 76.4589 53.1422 75.3226 51.335 76.0125C49.8564 76.5401 48.8706 78.0011 49.4867 79.5027C49.7332 80.3144 50.9243 79.9897 50.6368 79.2592Z" fill="#E8E8E8"/>
<path d="M267.01 138.795C265.285 137.78 266.517 134.777 268.447 136.035C270.296 137.253 267.831 139.323 266.64 137.902C266.147 137.293 265.285 138.146 265.778 138.754C266.722 139.891 268.529 139.81 269.597 138.876C270.83 137.78 270.501 135.995 269.228 135.102C267.954 134.209 266.106 134.371 265.326 135.832C264.545 137.212 265.079 139.079 266.435 139.85C267.051 140.215 267.667 139.201 267.01 138.795Z" fill="#E8E8E8"/>
<path d="M397.869 50.0392C396.965 48.7812 398.526 46.8737 399.963 47.4419C399.84 47.3607 399.717 47.239 399.594 47.1578C400.374 48.4971 399.224 50.3233 397.704 50.2422C397.91 50.4045 398.115 50.5262 398.279 50.6886C398.033 49.9987 397.745 49.2682 397.499 48.5782C397.211 47.8477 396.02 48.1724 396.308 48.9029C396.554 49.5928 396.842 50.3233 397.088 51.0132C397.17 51.2973 397.376 51.4597 397.663 51.4597C398.977 51.5408 400.128 50.7292 400.703 49.5928C401.154 48.7 401.401 46.8332 400.292 46.265C397.868 45.0881 395.363 48.6594 396.801 50.648C397.252 51.2973 398.32 50.6886 397.869 50.0392Z" fill="#E8E8E8"/>
<path d="M431.302 110.387C431.097 109.453 431.795 108.439 432.74 108.236C433.602 108.073 434.382 108.763 434.588 109.534C435.122 111.361 432.699 112.213 431.548 110.955C431.015 110.387 430.152 111.239 430.686 111.807C432.822 114.161 436.929 111.848 435.615 108.845C435.04 107.505 433.602 106.653 432.165 107.099C430.645 107.586 429.741 109.169 430.07 110.711C430.316 111.482 431.507 111.158 431.302 110.387Z" fill="#E8E8E8"/>
<path d="M297.979 446.295C296.418 445.564 296.541 443.454 297.979 442.642C299.375 441.871 300.69 442.561 301.963 443.129C303.031 443.616 304.263 444.063 305.208 443.129C306.07 442.318 305.906 441.06 305.947 440.005C306.111 435.906 310.136 436.717 312.888 437.732C313.628 438.016 313.956 436.839 313.217 436.555C310.794 435.622 307.426 434.729 305.495 437.083C304.92 437.772 304.756 438.584 304.715 439.436C304.674 440.005 304.92 441.263 304.592 441.79C303.688 443.129 302.456 441.912 301.511 441.506C299.704 440.735 297.116 440.938 296.007 442.805C295.063 444.388 295.638 446.538 297.322 447.31C298.061 447.675 298.677 446.62 297.979 446.295Z" fill="#E8E8E8"/>
<path d="M317.858 350.64C316.626 365.534 317.283 380.469 319.83 395.2C319.953 395.972 321.144 395.647 321.021 394.876C318.515 380.266 317.858 365.412 319.09 350.64C319.172 349.869 317.94 349.869 317.858 350.64Z" fill="#E8E8E8"/>
<path d="M318.68 351.573C325.087 353.765 331.7 355.226 338.436 355.956C344.761 356.606 352.031 357.296 358.11 354.942C358.849 354.658 358.521 353.481 357.781 353.765C351.867 356.078 344.679 355.388 338.436 354.739C331.823 354.049 325.292 352.547 319.008 350.396C318.228 350.112 317.94 351.289 318.68 351.573Z" fill="#E8E8E8"/>
<path d="M328.455 353.237C326.319 349.95 324.553 346.46 323.321 342.726C322.746 340.94 322.253 339.155 321.883 337.329C321.678 336.233 321.473 335.137 321.349 334.041C321.349 333.92 320.898 331.038 321.76 331.444C322.171 331.647 322.869 331.282 322.664 330.754C320.405 325.113 319.173 319.188 319.049 313.1C318.844 313.303 318.639 313.506 318.433 313.709C318.762 313.831 319.049 313.953 319.378 314.074C319.789 314.561 320.569 314.034 320.405 313.466C319.583 310.868 319.049 308.19 318.885 305.43C318.844 304.781 318.967 297.476 319.419 297.597C319.912 297.719 320.24 297.273 320.158 296.867C319.378 292.281 319.008 287.614 319.214 282.987C319.296 280.674 319.501 278.402 319.871 276.129C320.199 274.059 320.364 271.543 322.007 270.041C321.678 270.001 321.349 269.96 321.021 269.92C324.471 276.332 326.401 283.353 328.167 290.333C329.893 297.192 331.412 304.131 332.727 311.112C335.396 325.519 337.08 340.088 337.82 354.739C337.861 355.51 339.093 355.51 339.052 354.739C338.313 340.007 336.629 325.316 333.918 310.787C332.562 303.563 331.002 296.38 329.194 289.237C327.428 282.379 325.498 275.561 322.089 269.27C321.883 268.905 321.39 268.905 321.103 269.149C319.706 270.407 319.296 272.071 318.967 273.816C318.515 276.291 318.187 278.848 318.022 281.364C317.694 286.64 318.022 291.916 318.926 297.151C319.172 296.908 319.419 296.664 319.665 296.421C317.283 295.771 317.571 300.844 317.53 301.98C317.365 305.958 317.981 309.935 319.172 313.75C319.501 313.547 319.871 313.344 320.199 313.141C319.665 312.532 319.214 312.329 318.392 312.41C318.064 312.451 317.776 312.654 317.776 313.019C317.899 319.188 319.131 325.235 321.432 330.998C321.719 330.754 322.048 330.551 322.335 330.308C318.228 328.36 320.61 337.531 320.939 338.911C322.171 344.187 324.389 349.219 327.346 353.765C327.839 354.495 328.907 353.887 328.455 353.237Z" fill="#E8E8E8"/>
<path d="M334.986 312.695C334.616 310.097 334.534 307.459 334.862 304.862C334.945 304.213 336.505 296.583 337.286 296.908C337.696 297.111 338.189 296.867 338.23 296.38C338.477 291.185 340.12 286.559 342.05 281.77C343.981 277.022 345.87 272.436 349.074 268.337C348.786 268.337 348.499 268.337 348.211 268.337C350.552 270.975 350.265 274.993 350.388 278.28C350.552 281.973 350.676 285.666 350.717 289.359C350.799 296.624 350.676 303.888 350.347 311.152C349.649 326.006 347.965 340.819 345.418 355.469C345.295 356.24 346.486 356.565 346.609 355.794C349.279 340.535 350.963 325.072 351.661 309.57C351.99 301.778 352.072 293.986 351.908 286.194C351.826 282.298 351.743 278.402 351.456 274.506C351.292 271.949 350.881 269.433 349.074 267.444C348.868 267.201 348.417 267.201 348.211 267.444C345.049 271.502 343.077 275.967 341.188 280.715C339.093 285.828 337.327 290.78 337.039 296.38C337.368 296.218 337.655 296.015 337.984 295.852C335.479 294.757 334.657 300.033 334.328 301.453C333.425 305.268 333.343 309.123 333.918 312.979C333.877 313.79 335.068 313.466 334.986 312.695Z" fill="#E8E8E8"/>
<path d="M320.405 396.215C333.261 400.314 347.184 400.111 359.917 395.647C360.656 395.403 360.328 394.226 359.588 394.47C347.061 398.853 333.384 399.056 320.733 395.038C319.953 394.795 319.624 395.972 320.405 396.215Z" fill="#E8E8E8"/>
<path d="M357.945 354.536C358.438 361.11 358.972 367.685 359.424 374.259C359.876 380.956 360.04 387.733 358.931 394.389C358.808 395.16 359.999 395.485 360.122 394.713C361.231 388.18 361.149 381.605 360.697 375.031C360.246 368.213 359.712 361.354 359.178 354.536C359.137 353.765 357.904 353.765 357.945 354.536Z" fill="#E8E8E8"/>
<path d="M138.739 406.645C147.117 402.221 155.537 397.798 163.916 393.374C167.859 394.024 173.281 394.876 179.771 395.769C192.75 397.554 213.656 400.436 240.107 401.207C266.558 401.978 286.396 400.314 293.954 399.583C312.149 397.879 323.157 395.566 332.152 393.171C340.325 390.98 347.061 388.585 351.867 386.759C355.81 388.058 360.204 389.803 364.887 392.197C367.557 393.577 370.021 394.998 372.198 396.418C364.476 398.609 354.085 401.41 341.722 404.251C315.681 410.257 295.72 413.098 291.53 413.706C267.585 417.075 233.453 421.823 190.532 416.913C177.183 415.33 159.398 412.448 138.739 406.645Z" fill="white"/>
<path d="M138.287 406.686C138.492 408.39 138.739 410.054 138.944 411.759C142.024 412.611 146.542 413.828 152.128 415.046C162.807 417.4 173.651 419.023 187.821 420.119C240.148 424.177 281.96 420.565 281.96 420.565C302.866 418.739 323.157 416.872 349.361 409.324C359.219 406.483 367.269 403.601 373.019 401.369C372.567 399.462 372.116 397.554 371.664 395.647C370.062 396.296 367.68 397.23 364.764 398.285C344.966 405.428 328.66 407.781 314.121 409.526C282.166 413.422 266.188 415.33 242.735 415.695C216.038 416.142 180.222 414.559 138.287 406.686Z" fill="#352C9F"/>
<path d="M137.999 407.457C137.999 408.755 137.999 410.054 137.999 411.353C137.999 412.124 139.231 412.124 139.231 411.353C139.231 410.054 139.231 408.755 139.231 407.457C139.231 406.645 137.999 406.645 137.999 407.457Z" fill="#352C9F"/>
<path d="M138.451 412.489C169.133 420.687 201.17 421.742 232.755 422.188C263.108 422.594 293.666 421.296 323.567 415.817C340.407 412.733 357.001 408.228 373.019 402.1C373.759 401.816 373.43 400.639 372.691 400.923C344.432 411.759 314.408 417.278 284.219 419.591C253.784 421.904 223.062 421.377 192.626 419.551C174.431 418.414 156.4 416.06 138.78 411.353C137.999 411.109 137.671 412.286 138.451 412.489Z" fill="#352C9F"/>
<path d="M373.019 401.247C373.266 399.543 373.348 397.798 373.184 396.093C373.101 395.322 371.869 395.322 371.951 396.093C372.075 397.717 372.075 399.34 371.828 400.923C371.705 401.653 372.896 402.018 373.019 401.247Z" fill="#352C9F"/>
<path d="M138.985 407.335C147.61 403.277 156.071 398.934 164.368 394.227C165.066 393.821 164.45 392.806 163.752 393.171C155.455 397.838 146.994 402.221 138.369 406.28C137.63 406.604 138.246 407.66 138.985 407.335Z" fill="#352C9F"/>
<path d="M164.04 393.658C213.04 402.871 263.97 404.575 313.381 397.595C326.525 395.728 339.586 392.847 351.743 387.49C352.483 387.165 351.826 386.11 351.127 386.434C340.202 391.223 328.537 394.024 316.749 395.85C304.756 397.717 292.639 398.853 280.523 399.624C255.92 401.166 231.194 400.76 206.673 398.447C192.462 397.108 178.374 395.079 164.368 392.481C163.588 392.36 163.259 393.537 164.04 393.658Z" fill="#352C9F"/>
<path d="M351.497 387.287C358.808 389.641 365.667 392.928 372.075 397.108C372.732 397.554 373.348 396.499 372.691 396.053C366.201 391.832 359.219 388.504 351.826 386.11C351.045 385.866 350.717 387.043 351.497 387.287Z" fill="#352C9F"/>
<path d="M139.067 406.686C153.566 411.515 168.681 413.788 183.878 415.005C199.28 416.223 214.806 416.588 230.249 416.588C260.931 416.588 291.695 414.518 321.924 409.08C339.093 405.996 356.097 401.816 372.65 396.337C373.389 396.093 373.06 394.916 372.321 395.16C343.2 404.738 312.929 410.338 282.371 413.098C251.977 415.857 221.254 416.02 190.778 414.234C173.363 413.179 155.907 411.028 139.314 405.509C138.656 405.265 138.328 406.442 139.067 406.686Z" fill="#352C9F"/>
<path d="M162.725 174.914C212.916 163.429 264.586 160.913 315.928 160.426C330.468 160.264 345.007 160.304 359.547 160.304C360.328 160.304 360.328 159.087 359.547 159.087C308.042 159.006 256.29 158.965 205.154 165.986C190.778 167.974 176.526 170.491 162.397 173.737C161.616 173.94 161.945 175.117 162.725 174.914Z" fill="#352C9F"/>
<path d="M362.094 159.208C362.628 178.08 362.956 199.954 362.833 224.263C362.751 238.386 362.628 231.65 361.355 290.414C360.615 324.261 360.41 337.004 357.987 356.565C356.426 369.308 354.536 379.779 353.14 386.881C363.737 389.803 373.841 392.563 382.713 394.998C396.431 398.772 400.086 399.786 405.549 400.557C414.01 401.694 424.32 401.856 436.231 399.462C440.626 363.911 443.049 333.595 444.445 310.381C449.456 228.809 444.774 191.229 442.967 178.039C440.502 160.264 437.463 145.654 435.122 135.548C426.332 137.212 419.185 138.998 414.175 140.337C396.965 145.004 383.329 150.483 371.91 155.11C367.68 156.855 364.271 158.275 362.094 159.208Z" fill="white"/>
<path d="M78.9361 136.279C78.6075 139.769 78.2379 144.071 77.9093 147.804C71.0912 224.629 67.6821 263.061 66.5731 287.776C65.4231 314.318 65.3409 352.791 71.0501 400.639C71.5019 401.613 72.3234 402.952 73.802 404.048C75.7324 405.468 77.4986 405.428 80.9898 406.402C83.7417 407.173 85.1792 407.944 86.4936 408.431C90.2723 409.892 98.7333 411.556 109.494 411.15C124.938 410.541 136.808 405.874 145.516 402.343C153.689 399.056 160.22 395.525 164.738 392.847C162.191 370.242 160.302 346.379 159.234 321.339C157.057 268.093 159.234 219.191 163.711 175.604C161.822 174.874 159.07 173.859 155.825 172.56C150.239 170.328 136.849 164.931 113.273 153.567C103.95 149.103 92.2849 143.3 78.9361 136.279Z" fill="white"/>
<path d="M434.875 135.386C435.368 138.064 436.025 141.758 436.765 146.181C437.792 152.472 440.092 167.366 441.776 186.927C443.501 207.3 443.911 224.832 443.953 238.792C444.076 267.119 443.008 287.898 440.215 336.355C439.352 351.452 438.079 373.57 436.477 400.557C438.161 400.436 439.804 400.355 441.488 400.233C442.31 393.496 443.419 383.472 444.281 371.216C444.938 362.369 445.226 355.916 445.513 348.976C446.951 317.159 447.197 317.524 447.69 304.537C448.676 278.929 448.471 259.246 448.306 241.552C448.183 229.336 447.813 217.77 447.074 194.638C446.54 178.891 446.006 164.931 442.392 146.79C441.447 142.163 440.543 138.308 439.886 135.67C438.202 135.589 436.559 135.508 434.875 135.386Z" fill="#352C9F"/>
<path d="M72.6519 137.009C72.3644 138.43 71.9126 140.621 71.4608 143.3C70.1465 151.051 69.8179 156.895 69.6947 158.803C68.7911 172.601 66.9838 179.338 64.3552 209.978C63.8623 215.579 63.4926 220.489 62.7533 230.351C61.2336 250.48 60.4943 260.545 59.9604 271.908C59.3853 284.611 59.3032 293.58 59.18 311.518C59.0568 327.02 58.9746 338.221 59.3853 352.872C59.7139 364.56 60.3711 380.428 61.9729 399.34C65.2999 400.314 68.5857 401.288 71.9126 402.262C71.8716 400.436 71.7483 397.148 71.5019 393.05C70.5161 374.828 68.9143 367.441 68.5446 352.263C68.4214 347.596 68.5036 344.512 68.5446 340.088C68.9964 308.352 68.4625 293.864 68.75 273.248C69.2429 239.604 71.543 213.306 73.5145 190.904C75.3628 169.719 77.4575 151.579 79.2647 137.375C77.0057 137.253 74.8288 137.131 72.6519 137.009Z" fill="#352C9F"/>
<path d="M361.108 159.898C362.628 189.687 362.422 219.556 362.012 249.344C361.56 278.483 361.355 307.703 359.096 336.801C357.822 353.359 355.81 369.877 352.688 386.232C352.524 387.003 353.715 387.327 353.879 386.556C359.342 357.945 361.355 328.847 362.258 299.789C363.203 270.123 363.614 240.375 363.573 210.668C363.531 193.745 363.244 176.822 362.381 159.898C362.299 159.127 361.067 159.127 361.108 159.898Z" fill="#352C9F"/>
<path d="M362.628 159.898C385.423 148.738 409.615 140.702 434.588 135.954C435.368 135.792 435.04 134.615 434.259 134.777C409.205 139.566 384.889 147.683 362.012 158.843C361.313 159.208 361.93 160.264 362.628 159.898Z" fill="#352C9F"/>
<path d="M434.177 135.589C440.954 169.314 443.008 203.769 442.967 238.102C442.885 272.436 440.831 306.688 439.147 340.981C438.161 360.745 437.175 380.469 436.19 400.233C436.149 401.004 437.381 401.004 437.422 400.233C439.188 365.25 441.036 330.267 442.638 295.244C444.199 260.91 445.185 226.496 442.844 192.203C441.529 173.088 439.188 154.054 435.409 135.305C435.204 134.493 434.013 134.818 434.177 135.589Z" fill="#352C9F"/>
<path d="M352.894 386.475C354.742 388.585 358.028 388.991 360.615 389.762C364.148 390.818 367.721 391.873 371.253 392.928C378.4 395.038 385.506 397.27 392.734 399.056C406.864 402.465 421.362 403.155 435.697 400.72C436.477 400.598 436.149 399.421 435.368 399.543C421.239 401.937 406.946 401.248 393.063 397.879C386.45 396.296 379.961 394.267 373.471 392.319C370.185 391.345 366.899 390.371 363.614 389.397C361.971 388.91 360.328 388.423 358.685 387.936C356.96 387.409 355.029 387.043 353.797 385.623C353.222 385.055 352.36 385.907 352.894 386.475Z" fill="#352C9F"/>
<path d="M434.999 135.63C436.518 135.995 438.038 136.36 439.599 136.725C440.379 136.928 440.708 135.751 439.927 135.548C438.408 135.183 436.888 134.818 435.327 134.453C434.547 134.29 434.218 135.467 434.999 135.63Z" fill="#352C9F"/>
<path d="M439.517 136.319C443.624 152.715 444.733 169.841 445.924 186.683C447.156 203.891 447.813 221.139 448.101 238.427C448.594 272.72 447.403 307.013 445.431 341.265C444.322 360.664 442.926 380.063 441.488 399.462C441.447 400.233 442.679 400.233 442.72 399.462C445.308 364.966 447.649 330.47 448.758 295.893C449.867 261.397 449.785 226.82 447.567 192.324C446.376 173.575 445.308 154.338 440.749 136.035C440.502 135.224 439.311 135.548 439.517 136.319Z" fill="#352C9F"/>
<path d="M436.847 400.923C438.654 400.76 440.42 400.598 442.227 400.436C443.008 400.355 443.008 399.137 442.227 399.218C440.42 399.381 438.654 399.543 436.847 399.705C436.066 399.786 436.066 401.004 436.847 400.923Z" fill="#352C9F"/>
<path d="M162.684 175.279C159.932 203.404 158.289 231.609 157.755 259.855C157.221 288.223 157.796 316.631 159.521 344.958C160.466 360.867 161.822 376.735 163.464 392.563C163.547 393.334 164.779 393.334 164.697 392.563C161.739 364.479 159.891 336.273 159.152 308.027C158.413 279.66 158.782 251.251 160.302 222.924C161.164 207.016 162.356 191.147 163.875 175.279C163.998 174.508 162.766 174.508 162.684 175.279Z" fill="#352C9F"/>
<path d="M79.7165 137.253C106.373 151.903 134.056 164.728 162.479 175.645C163.218 175.929 163.547 174.752 162.807 174.468C134.467 163.591 106.907 150.808 80.3326 136.198C79.6344 135.792 79.0183 136.847 79.7165 137.253Z" fill="#352C9F"/>
<path d="M78.4432 136.969C73.8841 171.302 70.7215 205.839 68.9964 240.456C67.2714 275.074 67.0249 309.732 68.175 344.35C68.8321 363.789 69.9411 383.228 71.5019 402.627C71.584 403.398 72.8162 403.398 72.7341 402.627C69.9411 368.091 68.6268 333.433 68.7089 298.815C68.7911 264.157 70.3519 229.539 73.3091 195.003C74.9931 175.604 77.1289 156.286 79.6754 136.969C79.7576 136.198 78.5254 136.198 78.4432 136.969Z" fill="#352C9F"/>
<path d="M71.4608 403.398C94.3385 415.695 121.734 413.057 144.982 403.317C151.964 400.395 158.7 396.864 165.19 393.009C165.847 392.603 165.231 391.548 164.573 391.954C142.928 404.9 117.545 413.95 91.9563 409.242C85.0149 407.984 78.279 405.671 72.0769 402.343C71.4198 401.978 70.7626 403.033 71.4608 403.398Z" fill="#352C9F"/>
<path d="M62.3837 400.03C65.2588 401.369 68.216 402.506 71.2144 403.52C71.9537 403.764 72.2823 402.587 71.543 402.343C68.6268 401.369 65.7927 400.273 62.9998 398.975C62.2604 398.65 61.6444 399.705 62.3837 400.03Z" fill="#352C9F"/>
<path d="M71.8305 137.253C67.3946 171.262 63.698 205.352 61.2747 239.563C58.8925 273.613 57.7424 307.743 58.4817 341.874C58.8925 361.192 59.8782 380.509 61.5622 399.746C61.6444 400.517 62.8766 400.517 62.7944 399.746C59.8371 365.615 58.9746 331.363 59.7961 297.111C60.5765 262.98 62.9587 228.89 66.3678 194.881C68.2982 175.645 70.5572 156.408 73.0627 137.212C73.1859 136.482 71.9537 136.482 71.8305 137.253Z" fill="#352C9F"/>
<path d="M72.5287 138.105C74.911 137.618 77.2932 137.456 79.7576 137.577C80.538 137.618 80.538 136.401 79.7576 136.36C77.2111 136.238 74.7056 136.441 72.2001 136.928C71.4198 137.09 71.7483 138.267 72.5287 138.105Z" fill="#352C9F"/>
<path d="M376.839 162.658C378.564 209.735 378.482 256.852 376.511 303.929C375.977 317.118 375.278 330.267 374.416 343.457C374.375 344.228 375.607 344.228 375.648 343.457C378.646 296.461 379.796 249.344 379.098 202.227C378.893 189.037 378.564 175.848 378.071 162.658C378.03 161.887 376.798 161.887 376.839 162.658Z" fill="#352C9F"/>
<path d="M396.76 145.775C398.402 178.526 399.224 211.358 399.183 244.149C399.183 276.941 398.361 309.773 396.719 342.523C395.815 361.07 394.624 379.576 393.186 398.082C393.145 398.853 394.377 398.853 394.418 398.082C396.965 365.372 398.69 332.621 399.635 299.83C400.538 267.038 400.662 234.206 399.963 201.415C399.553 182.868 398.895 164.322 397.992 145.775C397.951 145.004 396.718 145.004 396.76 145.775Z" fill="#352C9F"/>
<path d="M420.664 138.552C422.964 172.601 424.361 206.732 424.73 240.903C425.1 275.196 424.525 309.448 422.964 343.7C422.102 362.896 420.91 382.092 419.391 401.247C419.35 402.019 420.582 402.019 420.623 401.247C423.252 367.198 424.977 333.067 425.675 298.937C426.373 264.685 426.127 230.392 424.895 196.099C424.196 176.903 423.211 157.707 421.896 138.511C421.855 137.74 420.623 137.74 420.664 138.552Z" fill="#352C9F"/>
<path d="M372.609 358.675C371.664 369.308 369.939 379.86 367.433 390.249C367.269 391.02 368.419 391.345 368.624 390.574C371.171 380.063 372.896 369.43 373.841 358.675C373.923 357.904 372.691 357.904 372.609 358.675Z" fill="#352C9F"/>
<path d="M93.1885 145.167C88.2597 179.216 86.165 213.631 85.8364 248.005C85.5489 282.582 86.9865 317.118 89.1223 351.614C90.3134 371.135 91.7098 390.615 93.1063 410.135C93.1474 410.906 94.3796 410.906 94.3385 410.135C91.8741 375.761 89.4098 341.387 88.0544 306.972C86.6989 272.639 86.4936 238.224 88.5062 203.891C89.6562 184.37 91.5456 164.85 94.3385 145.491C94.5028 144.761 93.3117 144.396 93.1885 145.167Z" fill="#352C9F"/>
<path d="M116.805 156.53C113.684 189.443 111.589 222.478 110.891 255.553C110.234 288.588 111.014 321.623 113.766 354.577C115.286 372.88 117.422 391.102 120.215 409.242C120.338 410.013 121.529 409.689 121.406 408.918C116.395 376.207 113.52 343.173 112.452 310.097C111.384 277.468 112 244.758 113.807 212.17C114.834 193.623 116.272 175.076 118.038 156.57C118.12 155.759 116.888 155.759 116.805 156.53Z" fill="#352C9F"/>
<path d="M140.464 166.229C136.438 196.951 134.097 227.875 133.481 258.841C132.865 289.806 133.933 320.811 136.685 351.655C138.246 368.862 140.299 385.988 142.887 403.074C143.01 403.845 144.201 403.52 144.078 402.749C139.437 372.149 136.479 341.346 135.206 310.463C133.933 279.66 134.385 248.776 136.479 217.973C137.671 200.685 139.396 183.396 141.655 166.189C141.819 165.458 140.587 165.458 140.464 166.229Z" fill="#352C9F"/>
<path opacity="0.12" d="M411.464 141.311C416.023 159.695 419.719 181.245 420.952 205.392C424.032 266.835 409.41 317.037 396.677 349.26C387.682 363.505 378.728 377.75 369.733 391.994C378.482 395.728 391.461 400.071 407.644 401.369C418.816 402.262 428.509 401.45 436.066 400.233C436.149 398.447 437.504 371.297 437.586 369.511C442.063 278.564 442.351 272.355 442.515 266.105C443.254 240.659 443.131 204.134 438.736 158.559C437.216 150.808 435.697 143.056 434.177 135.345C426.661 137.293 419.062 139.282 411.464 141.311Z" fill="#3F3F3F"/>
<path opacity="0.13" d="M124.815 161.156C123.747 165.58 122.145 172.195 120.256 180.271C111.877 216.309 105.716 242.81 102.43 267.201C96.5975 310.178 90.9705 351.817 114.957 385.988C121.94 395.931 129.579 402.627 134.672 406.604C129.744 408.512 123.624 410.257 116.477 411.109C96.5975 413.422 80.6612 407.051 72.8573 403.236C69.9 376.329 67.8464 347.515 67.1892 317.037C65.7106 249.587 71.2555 188.956 79.7165 136.806C94.7082 144.923 109.741 153.04 124.815 161.156Z" fill="#3F3F3F"/>
<path d="M81.7291 117.489C81.1951 117.895 81.6059 119.477 82.3452 122.196C82.6327 123.252 82.9202 124.063 83.0845 124.591C82.7559 126.782 82.4684 128.974 82.1398 131.165C81.4827 131.246 79.7987 131.612 78.2379 132.951C76.8003 134.209 76.2253 135.67 76.0199 136.319C77.3343 136.441 78.9361 136.725 80.6612 137.253C83.1666 138.024 85.1381 139.079 86.5757 139.972C86.5757 140.459 86.6579 141.392 87.315 142.082C87.8901 142.65 88.5883 142.732 88.999 142.813C90.4776 143.056 92.2438 143.381 94.5028 143.868C95.4886 144.436 97.1315 145.369 99.1441 146.465C105.962 150.118 108.427 150.726 115.245 154.298C119.64 156.611 119.27 156.692 122.35 158.153C127.074 160.426 131.14 161.765 133.892 162.536C135.042 161.278 136.89 158.843 137.917 155.312C138.739 152.512 138.697 150.077 138.533 148.494C139.231 148.86 140.34 149.265 141.614 149.103C144.899 148.738 146.994 145.045 147.651 142.407C148.226 140.094 147.692 138.633 147.241 135.914C146.214 129.826 145.31 124.388 147.857 120.938C149.993 118.057 154.387 116.718 157.92 112.862C158.248 112.497 158.864 111.807 158.659 111.482C158.289 110.874 155.414 111.929 154.018 112.538C153.114 112.943 146.337 116.028 144.283 123.008C143.955 124.104 143.914 127.269 143.873 133.56C143.832 138.146 143.914 140.743 142.065 142.245C141.121 143.016 139.724 143.462 138.451 143.178C136.562 142.772 135.658 140.946 134.837 139.728C132.701 136.522 129.661 135.183 125.924 133.357C123.008 131.936 120.502 131.409 115.45 130.313C110.686 129.298 109.248 129.42 107.194 127.919C104.894 126.214 103.621 123.82 102.964 122.48C102.307 121.222 101.28 119.234 100.828 116.393C100.582 114.729 100.623 113.552 100.212 113.471C99.4727 113.309 99.103 116.677 96.5975 117.854C95.0778 118.584 94.0921 117.895 91.4223 117.976C89.6973 118.016 87.7257 118.382 85.5078 119.356C84.7685 118.828 82.4684 116.961 81.7291 117.489Z" fill="black"/>
<path d="M82.9613 130.841C82.0987 124.144 88.2597 118.057 95.0778 118.747C101.526 119.396 105.798 127.148 105.593 132.951C105.551 133.722 106.784 133.722 106.825 132.951C107.03 126.539 102.183 118.097 95.0778 117.529C87.6025 116.921 80.7844 123.454 81.7291 130.841C81.8523 131.571 83.0845 131.612 82.9613 130.841Z" fill="black"/>
<path d="M82.8381 135.061C85.3435 139.891 90.7241 143.3 96.3511 142.569C101.485 141.879 105.839 137.78 106.619 132.707C106.743 131.936 105.551 131.612 105.428 132.383C104.73 137.009 100.869 140.743 96.1868 141.352C91.0527 142.042 86.2061 138.876 83.906 134.453C83.5363 133.763 82.4684 134.371 82.8381 135.061Z" fill="black"/>
<path d="M87.274 140.946C87.1507 139.404 91.5866 138.754 92.6956 138.511C94.7082 138.065 96.7618 137.821 98.8155 137.821C102.635 137.821 106.291 138.795 109.536 140.784C110.193 141.189 110.85 140.134 110.152 139.728C105.962 137.172 101.075 136.279 96.2279 136.725C93.6814 136.969 91.1759 137.496 88.7526 138.308C87.4383 138.754 85.8775 139.323 86.0007 140.946C86.0828 141.717 87.3561 141.717 87.274 140.946Z" fill="black"/>
<path d="M104.935 126.904C107.523 129.988 111.712 130.719 115.45 131.531C120.42 132.667 125.554 133.681 129.908 136.401C138.903 142.001 140.587 154.217 133.481 162.049C132.947 162.617 133.81 163.51 134.344 162.901C140.669 155.962 140.833 145.329 134.303 138.43C130.852 134.777 125.924 132.87 121.118 131.612C116.23 130.354 109.207 130.151 105.757 126.011C105.305 125.443 104.443 126.295 104.935 126.904Z" fill="black"/>
<path d="M133.687 148.129C131.633 145.451 128.018 144.517 124.856 145.816C120.954 147.399 120.749 152.147 121.2 155.759C121.282 156.53 122.515 156.53 122.433 155.759C122.063 152.918 122.022 148.535 124.979 147.115C127.526 145.856 130.852 146.506 132.578 148.778C133.07 149.387 134.138 148.778 133.687 148.129Z" fill="black"/>
<path d="M122.268 155.191C120.009 153.486 117.668 152.025 114.752 152.796C114.423 152.877 114.259 153.243 114.341 153.527C115.08 156.367 119.598 157.544 121.981 158.559C125.636 160.142 129.374 161.481 133.153 162.658C133.892 162.901 134.22 161.724 133.481 161.481C130.442 160.548 127.484 159.533 124.527 158.315C122.925 157.666 121.365 156.976 119.804 156.246C118.407 155.596 115.902 154.825 115.491 153.202C115.368 153.445 115.204 153.689 115.08 153.932C117.627 153.243 119.722 154.744 121.611 156.205C122.268 156.733 122.884 155.678 122.268 155.191Z" fill="black"/>
<path d="M86.165 140.824C87.7668 143.421 91.0116 143.868 93.8456 144.274C98.0351 144.882 102.225 144.882 106.414 144.436C107.194 144.355 107.194 143.137 106.414 143.219C103.046 143.584 99.678 143.665 96.31 143.34C93.476 143.056 88.9169 142.894 87.1918 140.215C86.8221 139.525 85.7542 140.134 86.165 140.824Z" fill="black"/>
<path d="M76.595 136.685C77.1289 133.844 79.6344 132.383 82.4273 132.261C82.222 132.099 82.0166 131.977 81.8523 131.815C82.0577 132.789 82.3452 133.722 82.7559 134.615C83.0434 135.345 84.2345 135.021 83.947 134.29C83.5774 133.357 83.2899 132.464 83.0434 131.49C83.0023 131.246 82.7148 131.044 82.4684 131.044C79.1826 131.206 76.061 132.992 75.4449 136.36C75.2806 137.131 76.4717 137.456 76.595 136.685Z" fill="black"/>
<path d="M83.7417 124.104C83.1256 122.359 82.6738 120.532 82.5095 118.666C82.5095 118.503 82.4684 118.341 82.4684 118.179C82.4273 117.813 82.4684 117.854 82.6327 118.3C83.0023 118.544 83.372 118.828 83.7417 119.112C84.3578 119.64 84.9328 120.208 85.4257 120.817C85.9596 121.425 86.8221 120.532 86.2882 119.964C85.59 119.153 82.6738 115.825 81.4416 117.123C80.8255 117.773 81.2773 119.274 81.4005 120.005C81.6059 121.506 82.0166 123.008 82.5095 124.428C82.8381 125.159 84.0292 124.875 83.7417 124.104Z" fill="black"/>
<path d="M97.6244 118.422C97.994 117.773 98.3637 117.123 98.7744 116.474C98.9387 116.19 99.103 115.947 99.2262 115.662C99.4727 115.257 99.4727 114.891 99.9655 115.013C100.541 115.135 100.335 116.474 100.335 116.961C100.335 117.732 100.376 118.503 100.376 119.274C100.376 120.045 101.608 120.045 101.608 119.274C101.608 118.016 101.65 116.758 101.567 115.5C101.526 114.688 101.239 113.796 100.335 113.512C99.5137 113.268 98.9387 113.796 98.528 114.404C97.8297 115.5 97.2136 116.677 96.5565 117.773C96.1457 118.503 97.2136 119.112 97.6244 118.422Z" fill="black"/>
<path d="M136.972 144.964C137.219 148.048 140.71 149.063 143.133 147.561C146.707 145.369 147.487 140.418 147.035 136.685C146.419 131.571 145.187 126.823 146.953 121.75C148.637 116.921 152.827 112.984 158.125 112.659C158.905 112.619 158.905 111.401 158.125 111.442C150.896 111.888 145.967 117.976 144.941 124.713C144.324 128.73 145.228 132.464 145.762 136.401C146.091 138.998 145.926 141.473 144.735 143.868C144.201 144.882 143.462 145.897 142.476 146.546C140.956 147.48 138.328 147.196 138.163 145.004C138.163 144.193 136.931 144.152 136.972 144.964Z" fill="black"/>
<path d="M137.63 147.155C138.903 150.524 143.339 149.022 145.269 147.074C148.432 143.909 147.734 138.633 147.487 134.615C147.446 133.844 146.214 133.844 146.255 134.615C146.419 137.172 146.666 139.931 146.214 142.488C146.008 143.706 145.557 144.842 144.735 145.816C143.832 146.912 139.889 149.671 138.821 146.831C138.533 146.1 137.342 146.425 137.63 147.155Z" fill="black"/>
<path d="M158.166 111.401C153.484 113.187 148.76 115.703 146.871 120.573C144.694 126.174 146.255 132.261 146.132 138.064C146.132 138.836 147.364 138.836 147.364 138.064C147.487 132.992 146.255 127.797 147.487 122.765C148.842 117.245 153.484 114.486 158.495 112.578C159.234 112.294 158.905 111.117 158.166 111.401Z" fill="black"/>
<path d="M157.221 112.091C152.909 114.039 148.966 117.448 146.953 121.791C145.885 124.063 146.05 126.579 146.05 129.055C146.05 132.22 146.173 135.426 146.419 138.592C146.46 139.363 147.692 139.363 147.651 138.592C147.487 136.035 147.364 133.519 147.323 130.962C147.282 128.284 146.912 125.118 147.939 122.602C149.705 118.341 153.689 115.054 157.837 113.146C158.577 112.822 157.961 111.766 157.221 112.091Z" fill="black"/>
<path d="M85.3846 126.782C86.5346 128.771 89.4508 128.081 89.7383 125.889C89.7794 125.484 89.1633 125.524 89.1222 125.889C88.9169 127.553 86.7811 127.878 85.9185 126.498C85.7132 126.133 85.1792 126.458 85.3846 126.782Z" fill="white"/>
<path d="M94.0921 125.2C95.3654 127.35 98.6101 126.498 98.6512 124.023C98.6512 123.617 98.0351 123.617 98.0351 124.023C97.994 125.93 95.6118 126.539 94.626 124.915C94.4207 124.55 93.8867 124.834 94.0921 125.2Z" fill="white"/>
<path d="M91.6277 127.878C91.9152 129.055 91.6688 130.232 90.9295 131.206C90.683 131.53 91.217 131.815 91.4634 131.53C92.2849 130.435 92.5313 129.055 92.2438 127.716C92.1206 127.35 91.5045 127.513 91.6277 127.878Z" fill="white"/>
<path d="M91.8741 127.837C91.7509 129.38 92.6134 130.841 94.051 131.49C94.4207 131.652 94.7082 131.125 94.3796 130.962C93.1474 130.394 92.367 129.177 92.4902 127.837C92.4902 127.432 91.8741 127.432 91.8741 127.837Z" fill="white"/>
<path d="M81.8523 131.449C85.4667 131.165 87.7668 134.087 90.1901 136.238C90.4777 136.482 90.9295 136.076 90.6419 135.792C88.0954 133.519 85.631 130.556 81.8523 130.8C81.4827 130.841 81.4827 131.449 81.8523 131.449Z" fill="white"/>
<path d="M88.5883 138.592C93.2295 135.67 98.7333 134.696 104.114 135.873C104.484 135.954 104.648 135.386 104.278 135.305C98.7333 134.128 93.0653 135.102 88.3008 138.105C87.9311 138.267 88.2597 138.795 88.5883 138.592Z" fill="white"/>
<path d="M100.253 144.152C104.073 144.395 107.687 143.219 110.603 140.743C110.891 140.499 110.48 140.053 110.152 140.297C107.359 142.65 103.909 143.787 100.253 143.543C99.8834 143.543 99.8834 144.152 100.253 144.152Z" fill="white"/>
<path d="M99.1441 115.338C98.2405 116.839 98.0351 118.584 98.569 120.248C98.6923 120.614 99.2673 120.451 99.1441 120.086C98.6512 118.584 98.8155 117.002 99.637 115.662C99.8834 115.297 99.3494 114.972 99.1441 115.338Z" fill="white"/>
<path d="M82.8791 119.112C83.8649 119.721 84.481 120.654 84.7274 121.75C84.8096 122.115 85.3846 121.953 85.3024 121.588C85.0149 120.33 84.2756 119.274 83.1666 118.584C82.8381 118.382 82.5505 118.909 82.8791 119.112Z" fill="white"/>
<path d="M104.607 125.605C105.387 126.539 106.291 127.35 107.318 127.959C107.646 128.162 107.975 127.635 107.646 127.432C106.66 126.823 105.757 126.052 105.059 125.159C104.771 124.875 104.36 125.321 104.607 125.605Z" fill="white"/>
<path d="M129.949 145.532C129.086 143.381 124.938 144.842 123.583 145.694C121.159 147.277 120.091 150.239 120.995 152.959C121.118 153.324 121.693 153.161 121.57 152.796C120.872 150.645 121.447 148.332 123.172 146.749C123.911 146.059 124.897 145.572 125.883 145.329C126.581 145.126 128.963 144.68 129.333 145.654C129.497 146.059 130.072 145.897 129.949 145.532Z" fill="white"/>
<path d="M121.488 152.999C118.284 151.66 114.875 151.538 111.548 152.553C111.178 152.674 111.343 153.243 111.712 153.121C114.957 152.106 118.202 152.269 121.324 153.567C121.693 153.73 121.857 153.121 121.488 152.999Z" fill="white"/>
<path d="M234.316 321.785C232.632 325.762 232.632 328.725 232.385 336.355C232.098 345.77 231.276 355.145 231.194 364.519C231.112 372.433 230.989 384.405 230.66 399.989C243.803 400.72 258.343 400.882 274.115 400.111C289.148 399.381 303.031 397.879 315.558 396.012C309.644 376.248 305.742 361.841 302.949 350.681C301.47 344.715 299.293 335.786 293.296 325.357C290.011 319.634 286.602 315.333 284.096 312.451C283.439 311.883 268.94 299.83 252.182 305.511C251.361 305.836 239.162 310.219 234.316 321.785Z" fill="#EC615B"/>
<path d="M258.508 345.445C261.259 350.275 264.011 355.104 266.722 359.934C267.092 360.623 268.16 360.015 267.79 359.325C265.038 354.495 262.286 349.666 259.575 344.837C259.206 344.147 258.138 344.755 258.508 345.445Z" fill="#C64F4F"/>
<path d="M258.179 345.202C264.504 352.994 268.16 361.882 270.131 371.622C271.98 380.834 273.171 390.168 273.869 399.543C273.91 400.314 275.142 400.314 275.101 399.543C274.362 389.925 273.13 380.306 271.24 370.851C269.269 361.07 265.408 352.142 259.083 344.35C258.59 343.7 257.686 344.593 258.179 345.202Z" fill="#C64F4F"/>
<path opacity="0.19" d="M268.078 304.578C269.515 307.419 271.569 311.599 273.869 316.631C280.564 331.322 287.505 346.825 291.202 365.899C292.721 373.61 294.159 384.771 293.543 398.691C296.993 398.528 300.649 398.244 304.468 397.838C308.288 397.433 311.944 396.946 315.394 396.377C314.326 392.806 312.601 387.124 310.67 380.103C305.29 360.461 304.551 354.333 299.95 341.387C296.541 331.769 293.379 325.235 288.82 318.985C284.712 313.344 280.851 309.813 275.964 307.338C272.924 305.795 270.09 305.024 268.078 304.578Z" fill="#3F3F3F"/>
<path opacity="0.11" d="M258.261 345.648C259.863 351.573 261.259 358.635 261.917 366.589C263.067 380.347 261.588 392.076 259.781 400.842C264.504 400.557 269.187 400.273 273.91 399.989C273.417 390.777 272.349 383.025 271.322 377.141C268.735 362.166 266.024 356.606 263.847 353.034C261.793 349.747 259.74 347.272 258.261 345.648Z" fill="#3F3F3F"/>
<path d="M205.647 252.631C204.291 253.524 203.47 255.229 201.868 258.597C200.553 261.357 199.937 263.508 198.952 266.714C196.241 275.804 196.528 274.262 195.584 277.712C194.351 282.298 192.134 290.333 190.901 300.925C189.71 311.193 189.957 319.107 189.998 321.014C190.45 333.067 192.585 342.036 194.023 347.799C196.569 358.148 199.978 366.752 206.756 383.918C208.234 387.611 209.466 390.655 210.329 392.765C209.713 392.847 208.727 392.968 207.536 393.131C201.334 393.861 200.471 393.699 197.966 394.226C194.762 394.916 191.887 395.606 190.778 398.001C190.285 399.096 190.08 400.639 190.696 401.166C191.476 401.816 192.996 400.355 195.625 399.502C197.843 398.812 199.814 398.853 201.17 399.056C200.102 401.126 199.486 402.992 199.116 404.332C198.212 407.416 197.514 409.932 198.664 411.718C199.239 412.611 200.348 413.422 201.252 413.179C201.745 413.057 202.196 412.611 203.429 409.405C204.62 406.199 204.702 405.184 205.688 403.926C206.55 402.871 207.536 402.303 208.193 401.978C207.864 402.992 207.495 404.494 207.331 406.32C207.248 407.416 207.125 408.431 207.331 409.729C207.495 410.906 207.864 413.422 209.754 414.802C210.082 415.046 211.438 416.06 212.259 415.533C212.958 415.127 212.752 413.991 213.04 410.338C213.286 407.254 213.533 406.401 213.738 405.914C214.272 404.494 215.093 403.479 215.709 402.871C215.504 405.793 215.545 408.228 215.627 410.013C215.792 412.895 216.079 414.193 217.024 415.005C217.558 415.452 218.461 415.898 219.201 415.573C219.94 415.249 220.186 414.234 220.392 412.976C221.295 408.228 220.761 406.848 221.788 404.453C222.199 403.52 222.651 402.384 223.76 401.572C226.101 399.868 229.428 400.882 229.88 401.004C231.851 401.613 232.59 402.668 233.576 402.221C234.398 401.856 234.849 400.679 234.891 399.705C234.932 397.311 232.262 395.485 229.962 393.983C228.812 393.212 227.087 392.197 224.787 391.386C222.774 387.449 220.227 381.727 218.133 374.462C216.736 369.592 216.079 365.859 215.463 362.328C213.286 349.95 214.067 345.202 211.643 332.905C211.068 329.942 210.493 327.589 210.165 326.249C210.329 324.22 210.616 321.055 211.027 317.199C212.383 304.618 213.286 296.745 216.038 287.492C218.215 280.228 220.433 274.262 220.433 274.262C223.226 266.835 224.129 265.821 223.801 263.426C222.651 255.878 210.699 249.303 205.647 252.631Z" fill="white"/>
<path d="M202.484 256.487C195.173 273.166 190.573 290.982 189.587 309.164C188.56 327.71 191.805 345.851 197.884 363.383C201.334 373.407 205.523 383.147 209.795 392.887C210.124 393.618 211.15 392.968 210.863 392.278C203.47 375.396 196.241 358.27 192.791 340.169C189.382 322.313 190.08 303.847 194.023 286.112C196.241 276.17 199.445 266.47 203.552 257.136C203.839 256.405 202.812 255.756 202.484 256.487Z" fill="#352C9F"/>
<path d="M217.804 279.66C212.629 295.122 209.918 311.315 209.631 327.589C209.631 328.36 210.863 328.36 210.863 327.589C211.15 311.396 213.861 295.365 218.995 279.984C219.242 279.254 218.051 278.929 217.804 279.66Z" fill="#352C9F"/>
<path d="M205.318 320.202C208.973 325.235 210.452 331.241 211.315 337.247C212.218 343.376 212.629 349.585 213.533 355.713C215.34 368.172 218.297 380.59 224.253 391.751C224.622 392.441 225.69 391.832 225.321 391.142C219.119 379.535 216.202 366.589 214.477 353.684C212.958 342.361 213.409 329.253 206.386 319.594C205.934 318.985 204.866 319.594 205.318 320.202Z" fill="#352C9F"/>
<path d="M209.631 392.319C205.811 392.522 201.991 392.887 198.253 393.577C195.584 394.105 192.75 394.957 190.901 397.067C189.833 398.325 188.478 401.329 190.819 402.181C191.846 402.546 192.75 401.856 193.612 401.369C195.748 400.152 197.966 398.894 200.512 399.584C201.293 399.786 201.621 398.61 200.841 398.407C198.746 397.838 196.857 398.325 194.968 399.259C194.393 399.543 193.859 399.827 193.325 400.152C192.996 400.314 192.709 400.517 192.38 400.72C192.01 400.071 191.6 399.421 191.23 398.772C191.312 397.757 193.366 396.58 194.105 396.175C196.118 395.119 198.459 394.754 200.677 394.429C203.675 393.983 206.673 393.699 209.672 393.537C210.452 393.496 210.452 392.279 209.631 392.319Z" fill="#352C9F"/>
<path d="M206.263 395.931C203.018 396.459 200.348 398.65 199.116 401.613C197.802 404.697 196.693 409.283 198.212 412.448C199.362 414.843 202.196 415.695 203.264 412.773C203.921 410.947 203.798 408.958 204.455 407.132C205.277 404.859 206.673 402.911 208.727 401.572C209.384 401.126 208.768 400.07 208.111 400.517C206.18 401.775 204.743 403.479 203.798 405.549C203.305 406.604 202.936 407.7 202.689 408.836C202.484 409.77 202.361 414.478 200.102 413.098C198.828 412.327 198.705 409.851 198.746 408.593C198.828 406.726 199.321 404.575 199.937 402.79C200.964 399.786 203.388 397.635 206.55 397.108C207.372 396.986 207.043 395.809 206.263 395.931Z" fill="#352C9F"/>
<path d="M210.124 398.934C207.577 400.557 206.673 404.088 206.427 406.929C206.18 409.973 207.043 413.26 209.343 415.411C210.699 416.669 212.793 417.318 213.163 414.965C213.779 411.028 212.177 405.468 216.531 403.114C217.229 402.749 216.613 401.694 215.915 402.059C214.354 402.911 213.368 404.291 212.752 405.955C211.89 408.39 212.383 410.866 212.013 413.382C211.849 414.518 211.52 415.736 210.247 414.559C209.795 414.153 209.384 413.625 209.056 413.098C208.275 411.88 207.823 410.5 207.7 409.08C207.413 406.239 208.152 401.694 210.781 399.989C211.397 399.543 210.781 398.488 210.124 398.934Z" fill="#352C9F"/>
<path d="M215.956 402.181C215.176 405.103 214.436 408.147 214.929 411.19C215.134 412.651 215.997 416.223 217.886 416.588C220.022 416.994 220.885 413.26 221.09 411.88C221.542 408.877 220.967 405.265 223.349 402.952C223.924 402.384 223.062 401.531 222.487 402.1C219.611 404.9 220.597 408.958 219.735 412.53C219.447 413.828 218.626 415.776 217.27 414.275C216.531 413.504 216.326 412.002 216.161 410.987C215.751 408.147 216.449 405.306 217.188 402.546C217.352 401.775 216.161 401.45 215.956 402.181Z" fill="#352C9F"/>
<path d="M224.828 392.441C227.251 393.415 229.756 394.47 231.646 396.337C232.508 397.189 233.576 398.488 233.823 399.705C234.439 403.074 231.892 400.923 230.948 400.517C228.36 399.381 223.226 400.192 221.747 402.79C221.378 403.48 222.445 404.088 222.815 403.398C223.595 401.978 225.731 401.613 227.21 401.41C228.114 401.288 229.14 401.207 230.003 401.45C230.989 401.734 231.605 402.587 232.549 402.871C233.905 403.277 234.932 402.343 235.137 401.045C235.507 398.934 233.658 396.58 232.221 395.201C230.208 393.293 227.621 392.238 225.074 391.223C224.417 390.98 224.129 392.157 224.828 392.441Z" fill="#352C9F"/>
<path opacity="0.13" d="M216.531 266.551C211.808 266.835 208.973 278.767 207.413 285.382C205.647 292.809 204.045 303.036 204.373 317.93C204.661 331.241 206.386 341.387 206.961 344.918C209.548 360.096 213.615 372.839 217.599 382.823C218.913 386.475 220.186 390.128 221.501 393.74C220.761 396.743 220.022 399.827 219.324 403.033C218.42 407.254 217.599 411.393 216.942 415.37C217.722 415.452 218.79 415.411 219.529 414.681C220.474 413.747 220.351 412.246 220.392 410.947C220.433 409.729 220.556 403.845 223.226 401.653C224.869 400.314 227.497 400.314 229.305 400.963C231.153 401.653 231.974 402.993 233.207 402.587C234.151 402.303 234.808 401.166 234.932 400.273C235.342 397.311 229.592 394.267 228.647 393.78C226.799 392.806 225.937 392.684 224.746 391.467C223.267 389.925 222.774 388.098 222.569 387.287C219.16 374.462 217.476 375.274 215.176 360.542C213.45 349.423 214.559 350.072 212.793 341.225C211.561 334.975 210.534 332.418 210.206 327.021C209.836 321.095 210.534 316.469 211.274 312.37C214.354 295.609 220.269 275.317 221.706 270.488C220.392 268.459 218.585 266.43 216.531 266.551Z" fill="#3F3F3F"/>
<path d="M300.361 99.7133C299.088 99.6727 298.102 101.945 297.856 102.554C297.486 103.447 296.911 105.192 297.322 107.668C297.322 107.668 297.568 109.372 298.39 119.68C298.595 121.994 298.636 125.362 298.02 129.583C296.377 134.047 294.816 137.537 293.748 139.81C290.134 147.439 287.711 150.483 282.659 160.142C280.769 163.754 280.605 164.322 278.387 168.786C272.842 179.865 268.776 186.805 264.627 194.232C260.972 200.725 255.838 210.262 249.8 222.518C249.513 223.574 248.075 229.215 251.402 234.166C254.934 239.401 262.327 241.755 269.474 239.482C270.583 237.94 272.144 235.546 273.581 232.421C274.978 229.377 275.635 227.023 276.087 225.522C276.539 224.02 278.346 218.947 282.001 208.72C283.151 205.555 284.548 201.78 287.382 194.394C291.695 183.071 293.83 177.43 295.268 173.9C298.513 165.864 300.977 160.304 305.824 149.509C308.37 143.827 311.492 136.969 315.106 129.177C317.201 128 320.076 126.174 323.157 123.536C327.593 119.761 329.81 116.555 334.082 110.468C336.834 106.491 338.929 103.001 338.354 99.5104C338.271 99.0234 338.066 97.603 337.286 97.4C336.3 97.116 335.068 99.064 333.712 100.768C332.316 102.514 330.221 104.786 327.1 107.14C328.168 104.218 329.235 101.945 329.975 100.444C331.659 97.0348 333.055 94.8433 333.918 91.069C334.862 87.0513 334 86.3208 333.753 86.1179C332.644 85.3062 330.755 86.8484 329.646 85.9555C328.66 85.1033 329.523 83.2365 328.743 82.79C327.962 82.3436 326.237 83.6829 325.005 85.1033C322.869 87.5383 322.376 89.8921 321.596 92.1648C320.856 94.3969 319.501 97.4406 316.955 100.809C316.338 100.89 315.517 100.931 315.147 100.444C314.737 99.8756 315.312 98.9422 315.846 97.4406C315.969 97.0754 315.887 97.2783 316.749 93.5446C317.078 92.1242 317.694 89.4863 318.187 87.376C318.885 84.3322 319.214 83.0741 318.556 81.7349C318.433 81.4508 317.899 80.355 317.119 80.3144C316.215 80.2739 315.517 81.6943 314.983 82.79C312.806 87.2136 311.697 89.4457 311.41 90.2168C309.972 94.0722 308.042 99.9568 307.754 101.986C307.713 102.229 307.631 103.082 307.22 104.177C307.015 104.705 306.892 104.908 306.768 105.233C305.742 107.505 306.604 109.007 305.536 109.819C305.413 109.9 304.797 110.346 304.304 110.184C303.77 110.021 303.524 109.332 303.236 107.018C302.825 103.853 303.072 102.919 302.333 101.54C301.84 100.931 301.224 99.7539 300.361 99.7133Z" fill="white"/>
<path d="M298.39 118.503C298.677 115.541 298.225 112.659 298.061 109.697C297.979 108.276 297.979 106.815 298.184 105.395C298.307 104.583 298.472 103.772 298.718 103C299.129 101.824 299.17 100.85 300.484 100.809C301.716 100.768 301.634 101.499 301.84 102.513C302.045 103.406 302.086 104.34 302.127 105.233C302.209 106.491 302.25 107.789 302.538 109.007C302.825 110.265 303.606 111.32 305.043 110.874C305.783 110.63 305.495 109.453 304.715 109.697C303.277 110.103 303.4 105.314 303.318 104.502C303.195 103.203 303.072 101.864 302.579 100.647C301.881 98.9422 300.279 98.0899 298.923 99.6727C297.157 101.702 296.788 105.354 296.788 107.87C296.788 111.442 297.486 114.932 297.157 118.503C297.116 119.274 298.348 119.274 298.39 118.503Z" fill="#352C9F"/>
<path d="M305.536 110.387C307.59 106.45 308.206 101.986 309.397 97.7652C310.67 93.2199 312.272 88.7557 314.654 84.6974C315.188 83.8046 315.722 82.5465 316.503 81.8566C318.022 80.4767 318.022 83.1147 317.899 84.251C317.653 86.7672 316.996 89.3239 316.421 91.7995C315.887 94.0722 315.147 96.2637 314.613 98.5363C314.326 99.7944 314.326 100.89 315.229 101.864C315.763 102.432 316.626 101.58 316.092 101.012C315.065 99.9162 316.133 97.7247 316.462 96.5477C316.831 95.2085 317.201 93.8693 317.489 92.53C318.064 90.0544 318.639 87.5382 319.008 84.9815C319.214 83.6422 319.501 81.2884 318.31 80.2738C317.283 79.4216 316.256 80.2332 315.558 81.0449C312.56 84.738 310.711 89.608 309.233 94.0722C307.549 99.2263 307.015 104.989 304.468 109.819C304.099 110.468 305.167 111.077 305.536 110.387Z" fill="#352C9F"/>
<path d="M315.517 101.986C316.749 102.108 317.201 101.215 317.776 100.241C318.68 98.6986 319.501 97.0753 320.282 95.4926C321.801 92.4082 322.869 89.0398 324.717 86.1584C325.128 85.5091 325.621 84.6974 326.278 84.2104C326.812 83.6016 327.51 83.3987 328.414 83.6828C328.537 84.251 328.619 84.8191 328.619 85.3873C328.66 87.3759 328.003 89.3645 327.305 91.2313C325.909 94.9244 324.348 98.5769 322.828 102.27C322.541 103 323.732 103.325 324.019 102.595C324.882 100.484 333.753 81.9783 327.962 81.8566C326.812 81.816 325.498 83.2364 324.841 84.0075C323.691 85.3467 322.869 86.8889 322.13 88.4716C321.267 90.3791 320.487 92.2865 319.583 94.1533C319.049 95.2896 318.433 96.4666 317.858 97.5623C317.489 98.2928 316.585 100.809 315.558 100.728C314.737 100.687 314.737 101.905 315.517 101.986Z" fill="#352C9F"/>
<path d="M330.057 87.0512C330.509 84.6974 333.096 86.3207 333.425 87.8223C333.712 89.0804 333.22 90.3385 332.809 91.5154C332.193 93.3011 331.494 95.0462 330.755 96.7507C329.318 100.078 327.634 103.244 325.744 106.369C325.333 107.059 326.401 107.668 326.812 106.978C328.578 104.096 330.139 101.093 331.535 98.0493C332.727 95.4114 334.164 92.4894 334.616 89.608C334.903 87.7817 334.37 85.4279 332.316 84.7786C330.796 84.2916 329.153 85.225 328.866 86.7672C328.743 87.4977 329.934 87.8223 330.057 87.0512Z" fill="#352C9F"/>
<path d="M327.675 107.465C329.235 105.72 330.755 103.974 332.316 102.229C333.137 101.296 333.877 100.281 334.78 99.4697C335.068 99.2262 335.355 99.0233 335.602 98.7798C336.3 99.0233 336.998 99.2668 337.738 99.5103C337.943 99.8755 337.45 100.931 337.327 101.255C336.054 105.111 334.205 108.763 332.028 112.172C327.634 119.031 321.596 124.794 314.531 128.974C313.833 129.38 314.49 130.435 315.147 130.029C323.937 124.834 331.166 117.205 335.725 108.155C336.834 105.963 337.902 103.65 338.6 101.296C339.011 99.9161 339.257 98.0493 337.655 97.3188C336.095 96.5883 334.452 98.0087 333.466 99.0233C331.125 101.418 328.989 104.096 326.771 106.612C326.278 107.181 327.141 108.033 327.675 107.465Z" fill="#352C9F"/>
<path d="M297.322 117.245C297.609 120.979 297.897 124.794 297.281 128.527C296.664 132.221 295.104 135.63 293.379 138.957C289.887 145.694 286.232 152.35 282.659 159.046C275.512 172.439 268.365 185.791 261.218 199.183C257.111 206.853 253.004 214.564 248.896 222.234C248.527 222.924 249.595 223.533 249.964 222.843C264.71 195.206 279.742 167.69 294.241 139.891C295.966 136.604 297.568 133.235 298.266 129.623C299.088 125.524 298.8 121.385 298.472 117.245C298.513 116.474 297.281 116.474 297.322 117.245Z" fill="#352C9F"/>
<path d="M314.449 128.69C301.306 156.124 289.846 184.208 279.742 212.86C276.785 221.179 273.828 229.499 270.254 237.575C269.926 238.305 270.994 238.914 271.322 238.184C277.442 224.426 281.919 210.019 287.177 195.977C292.557 181.529 298.39 167.203 304.592 153.08C308.124 145.085 311.738 137.172 315.517 129.298C315.846 128.609 314.778 128 314.449 128.69Z" fill="#352C9F"/>
<path opacity="0.1" d="M333.014 86.5642C331.33 86.3207 329.071 93.1387 327.757 96.5477C323.773 107.018 320.405 108.236 311.862 122.44C308.699 127.675 304.345 135.548 299.95 145.816C286.807 173.169 273.705 200.563 260.561 227.916C263.765 231.771 266.928 235.667 270.131 239.523C271.733 235.018 274.074 228.403 276.99 220.408C282.289 206.001 289.148 187.454 298.841 164.89C302.702 155.962 308.042 143.908 314.901 129.745C316.79 128.568 319.419 126.742 322.294 124.226C326.155 120.898 331.248 116.393 334.739 109.047C335.848 106.775 337.245 103.285 337.984 98.6986C337.45 98.4551 336.67 98.171 335.807 98.3334C334.328 98.6175 333.548 100.038 332.932 101.012C330.55 104.624 327.059 107.018 326.607 106.734C326.36 106.531 327.059 105.354 328.948 101.539C332.809 93.7069 331.207 95.7766 332.727 93.1387C333.589 91.6371 334.452 90.3385 334.164 88.6745C334.164 87.944 333.712 86.686 333.014 86.5642Z" fill="#3F3F3F"/>
<path opacity="0.13" d="M330.509 114.242C328.455 115.541 325.539 117.448 322.212 119.964C318.392 122.805 314.285 125.889 310.835 129.785C306.152 135.061 304.099 140.297 302.866 143.34C291.571 171.83 278.141 202.754 274.321 211.358C272.226 216.066 268.94 223.168 264.586 231.69C266.558 234.247 268.57 236.804 270.542 239.36C276.21 222.275 282.741 204.378 290.216 185.831C298.266 165.905 306.604 147.277 314.983 129.948C317.242 128.446 319.789 126.539 322.376 124.063C326.032 120.614 328.66 117.123 330.509 114.242Z" fill="#3F3F3F"/>
<path d="M221.295 231.731C219.776 232.745 216.367 235.099 212.875 238.914C209.261 242.851 207.166 246.544 205.441 249.669C204.086 252.063 203.1 254.173 202.402 255.716C203.47 257.745 205.195 260.87 207.577 264.603C211.808 271.218 215.093 274.79 220.761 281.973C223.144 284.976 226.594 289.481 230.701 295.163C231.358 298.206 231.933 301.412 232.426 304.781C233.412 311.68 233.782 318.092 233.782 323.855C235.301 325.478 237.93 327.832 241.791 329.496C248.198 332.296 254.031 331.485 257.07 330.998C263.806 329.983 268.406 327.021 271.569 324.951C277.319 321.217 281.221 316.753 283.809 313.06C283.275 306.729 282.576 300.195 281.714 293.418C280.975 287.655 280.153 282.054 279.249 276.616C279.167 272.355 278.757 266.551 277.36 259.815C276.21 254.173 274.814 247.599 270.665 239.807C265.49 230.108 259.042 224.223 256.536 222.072C254.318 220.165 252.306 218.744 250.827 217.73C244.83 221.504 239.655 223.858 236.123 225.278C229.551 227.957 226.471 228.362 221.295 231.731Z" fill="white"/>
<path d="M203.059 255.878C204.332 251.089 207.864 246.625 210.904 242.729C214.108 238.671 217.722 234.978 222.035 232.015C222.692 231.569 222.076 230.513 221.419 230.96C216.983 234.004 213.245 237.778 209.959 241.958C206.797 245.976 203.223 250.521 201.909 255.513C201.704 256.324 202.895 256.608 203.059 255.878Z" fill="#352C9F"/>
<path d="M202.155 256.284C210.616 270.894 220.638 284.611 232.015 297.151C232.549 297.719 233.412 296.867 232.878 296.299C221.583 283.84 211.643 270.204 203.223 255.675C202.813 254.985 201.745 255.594 202.155 256.284Z" fill="#352C9F"/>
<path d="M236.903 225.846C241.503 222.64 246.555 220.246 251.936 218.704C252.716 218.501 252.388 217.324 251.607 217.527C246.104 219.109 240.969 221.544 236.287 224.791C235.63 225.238 236.246 226.293 236.903 225.846Z" fill="#352C9F"/>
<path d="M250.909 219.028C270.542 232.543 278.962 256.243 278.017 279.173C277.976 279.944 279.208 279.944 279.249 279.173C280.235 255.756 271.528 231.731 251.525 217.973C250.909 217.527 250.293 218.582 250.909 219.028Z" fill="#352C9F"/>
<path d="M229.346 294.757C231.481 299.099 231.728 304.497 232.18 309.204C232.673 313.993 232.837 318.823 232.837 323.652C232.837 324.423 234.069 324.423 234.069 323.652C234.11 318.295 233.864 312.938 233.248 307.622C232.755 303.117 232.426 298.247 230.414 294.107C230.044 293.418 229.017 294.026 229.346 294.757Z" fill="#352C9F"/>
<path d="M233.617 323.896C239.778 331.363 250.293 333.473 259.452 331.16C264.545 329.861 269.269 327.386 273.499 324.301C277.73 321.217 281.755 317.646 284.137 312.938C284.507 312.248 283.439 311.639 283.069 312.329C280.769 316.834 276.908 320.284 272.842 323.246C268.899 326.128 264.504 328.482 259.74 329.821C250.786 332.296 240.477 330.389 234.439 323.043C233.987 322.435 233.124 323.287 233.617 323.896Z" fill="#352C9F"/>
<path d="M278.469 277.347C280.482 289.237 282.453 301.128 283.151 313.141C283.193 313.912 284.425 313.912 284.384 313.141C283.644 301.007 281.673 288.994 279.66 277.022C279.537 276.251 278.346 276.575 278.469 277.347Z" fill="#352C9F"/>
<path opacity="0.13" d="M238.464 224.223C243.023 229.539 249.266 237.818 254.482 249.019C262.122 265.415 263.642 279.579 264.792 291.632C265.695 300.804 266.188 313.587 264.381 328.847C267.872 327.345 272.801 324.748 277.565 320.243C280.194 317.727 282.166 315.211 283.644 313.019C282.289 301.697 280.933 290.333 279.578 279.01C279.824 269.676 278.346 262.128 276.949 257.014C272.637 241.187 264.34 231 261.547 227.794C257.727 223.371 253.99 220.124 251.238 217.973C246.966 220.083 242.736 222.153 238.464 224.223Z" fill="#3F3F3F"/>
<path opacity="0.14" d="M269.063 238.427C268.324 238.63 270.049 245.245 271.692 255.026C271.692 255.026 274.197 269.879 274.731 284.246C275.101 293.742 274.608 307.622 270.296 324.87C272.267 323.896 274.69 322.475 277.196 320.487C280.235 318.052 282.412 315.495 283.891 313.466C283.357 297.111 281.96 288.629 280.646 283.84C280.4 282.907 279.742 280.715 279.208 277.631C278.223 271.868 278.716 269.392 278.182 264.603C277.771 260.789 276.99 258.272 275.553 253.605C273.376 246.584 269.885 238.184 269.063 238.427Z" fill="#3F3F3F"/>
<path d="M220.72 164.971C218.01 166.473 214.559 168.746 211.232 172.195C204.332 179.46 202.114 187.576 201.334 191.594C200.718 191.513 199.034 191.391 197.678 192.446C195.666 193.988 195.625 197.032 196.405 198.818C196.693 199.467 197.103 199.995 197.966 201.05C198.993 202.308 199.65 203.079 200.718 203.525C201.17 203.728 202.196 204.012 203.675 203.688C204.127 205.027 204.866 206.894 205.975 209.045C207.413 211.804 209.59 215.903 213.943 219.475C215.217 220.53 217.188 221.91 219.858 223.168C220.844 224.426 222.651 227.064 222.856 230.635C223.267 236.926 218.626 242.161 214.231 244.474C206.591 248.492 198.294 244.474 195.255 242.972C193.612 242.161 185.356 237.94 181.906 228.687C177.717 217.527 183.18 206.366 186.424 199.711C189.71 193.014 191.23 193.461 193.735 186.927C197.062 178.283 195.296 175.239 199.116 168.624C200.595 166.026 203.593 160.832 209.877 158.397C215.258 156.327 220.227 157.382 222.363 157.991C224.129 156.936 227.251 155.434 231.194 155.434C240.559 155.434 246.555 164.2 247.993 166.311C252.264 172.52 250.005 174.427 253.825 183.153C258.631 194.151 263.313 193.501 267.626 203.81C269.721 208.842 273.212 217.161 269.351 225.116C265.367 233.314 256.29 235.708 255.14 235.992C253.045 236.52 247.418 237.9 241.791 234.937C241.257 234.653 234.192 230.838 233.617 224.304C233.412 221.91 234.11 219.678 234.274 219.191C235.137 216.553 236.616 214.848 237.067 214.28C238.834 212.129 240.969 208.152 242.448 200.238C243.146 200.198 244.296 200.035 245.446 199.386C247.87 198.006 249.02 195.206 248.896 192.771C248.855 192.203 248.691 188.956 246.309 187.86C245.323 187.414 244.296 187.536 243.721 187.657C236.082 180.028 228.401 172.52 220.72 164.971Z" fill="#5222D0"/>
<path d="M220.72 164.931C216.161 167.569 212.999 170.491 210.986 172.641C204.291 179.825 202.155 187.333 201.704 189.078C201.416 190.173 201.211 191.066 201.129 191.716C200.677 191.553 199.65 191.269 198.623 191.716C197.062 192.406 196.734 194.272 196.569 195.206C196.159 197.357 196.98 199.061 197.309 199.711C197.761 200.644 198.5 202.146 200.266 202.917C201.704 203.566 203.059 203.323 203.634 203.201C204.209 204.662 205.03 206.691 206.304 209.004C208.234 212.657 210.041 216.025 213.533 219.028C214.888 220.205 217.106 221.829 220.31 223.087C220.967 224.101 221.87 225.684 222.363 227.754C222.774 229.377 222.856 230.757 222.815 231.812C223.883 232.34 225.896 233.151 228.401 233.111C233.207 233.03 236.369 230.067 237.109 229.336C236.328 227.023 235.63 224.182 235.342 220.895C235.219 219.393 235.178 217.973 235.178 216.674C236.451 215.335 238.012 213.428 239.285 210.871C241.544 206.447 241.914 202.349 241.955 199.954C242.53 200.035 243.68 200.157 244.912 199.67C246.637 198.98 247.418 197.479 247.87 196.626C247.993 196.423 249.718 192.933 248.157 189.484C247.788 188.712 247.171 187.292 245.939 187.17C245.036 187.089 244.296 187.779 244.009 188.063C242.325 186.075 239.162 182.381 234.726 177.309C230.906 172.885 228.483 170.125 224.417 167.285C222.938 166.229 221.624 165.458 220.72 164.931Z" fill="white"/>
<path d="M215.052 207.99C214.642 208.923 216.572 210.587 217.476 211.277C219.365 212.657 221.378 212.86 222.117 212.9C222.979 212.981 225.813 213.184 228.401 211.358C229.017 210.912 230.742 209.735 231.399 207.543C231.851 205.96 231.728 203.769 230.865 203.404C230.208 203.16 229.592 203.972 228.196 204.946C225.731 206.61 223.185 207.016 221.008 207.34C217.311 207.908 215.463 207.178 215.052 207.99Z" fill="black"/>
<path d="M202.032 198.615C203.511 204.702 205.893 210.668 209.836 215.619C213.327 220.043 218.502 224.304 224.54 223.736C230.126 223.208 234.685 218.907 237.642 214.524C241.134 209.41 242.818 203.282 242.653 197.113C242.612 196.342 241.38 196.342 241.421 197.113C241.585 202.754 240.107 208.274 237.109 213.063C234.274 217.567 229.592 222.316 223.883 222.559C217.845 222.803 212.875 217.933 209.672 213.387C206.468 208.842 204.496 203.607 203.182 198.25C203.018 197.519 201.827 197.844 202.032 198.615Z" fill="#352C9F"/>
<path d="M219.488 223.168C221.213 225.765 222.076 228.606 222.076 231.731C222.076 232.502 223.308 232.502 223.308 231.731C223.308 228.444 222.363 225.319 220.556 222.559C220.145 221.869 219.077 222.478 219.488 223.168Z" fill="#352C9F"/>
<path d="M222.651 232.218C227.662 235.059 234.151 233.679 237.56 229.133C238.053 228.525 236.985 227.916 236.492 228.525C233.453 232.542 227.621 233.679 223.267 231.163C222.569 230.797 221.953 231.853 222.651 232.218Z" fill="#352C9F"/>
<path d="M234.48 217.73C234.521 221.423 235.096 225.075 236.287 228.606C236.533 229.336 237.725 229.012 237.478 228.281C236.369 224.832 235.753 221.342 235.712 217.73C235.712 216.918 234.48 216.918 234.48 217.73Z" fill="#352C9F"/>
<path d="M203.264 202.47C202.73 203.038 201.416 202.836 200.8 202.511C200.307 202.267 199.855 201.902 199.486 201.537C198.664 200.766 198.007 199.832 197.596 198.818C196.775 196.91 196.405 191.432 200.061 192.406C200.841 192.609 201.17 191.432 200.389 191.229C195.871 190.052 195.173 195.977 196.323 198.94C197.227 201.334 201.375 206.285 204.168 203.323C204.661 202.754 203.798 201.902 203.264 202.47Z" fill="#352C9F"/>
<path d="M244.543 188.266C245.036 186.643 247.171 189.768 247.418 190.336C247.911 191.635 248.075 193.055 247.87 194.435C247.541 197.194 245.323 199.832 242.243 199.061C241.462 198.858 241.134 200.035 241.914 200.238C246.884 201.496 249.554 196.383 249.102 192.203C248.896 190.376 248.157 188.023 246.391 187.049C245.241 186.44 243.762 186.602 243.352 187.901C243.105 188.713 244.296 188.997 244.543 188.266Z" fill="#352C9F"/>
<path d="M207.659 179.662C209.015 177.106 211.397 175.442 214.272 175.036C215.052 174.914 214.724 173.737 213.943 173.859C210.781 174.305 208.07 176.253 206.591 179.054C206.222 179.744 207.289 180.352 207.659 179.662Z" fill="#352C9F"/>
<path d="M226.635 173.413C230.085 172.601 233.535 174.305 235.096 177.39C235.466 178.08 236.492 177.471 236.164 176.781C234.357 173.169 230.249 171.302 226.306 172.236C225.526 172.439 225.855 173.616 226.635 173.413Z" fill="#352C9F"/>
<path d="M217.681 178.404C218.461 182.706 218.667 187.13 218.215 191.513C218.051 192.852 217.393 194.759 218.01 196.099C218.667 197.56 220.433 198.818 221.542 199.954C222.076 200.522 222.979 199.67 222.404 199.102C221.665 198.331 220.926 197.6 220.186 196.829C219.036 195.652 218.913 195.287 219.16 193.583C219.365 192.04 219.57 190.458 219.652 188.875C219.817 185.263 219.529 181.651 218.872 178.12C218.749 177.309 217.558 177.633 217.681 178.404Z" fill="#352C9F"/>
<path d="M212.506 188.834C211.89 187.86 211.602 186.805 211.684 185.669C211.684 185.425 211.849 184.37 212.054 184.33C212.177 184.33 212.383 185.75 212.424 185.912C212.506 186.44 212.547 187.008 212.547 187.536C212.547 187.698 212.506 189.037 212.506 188.226C212.465 187.049 212.547 185.872 212.588 184.695C212.177 184.735 211.766 184.817 211.397 184.857C211.602 186.115 211.725 187.373 211.725 188.672C212.136 188.672 212.547 188.672 212.958 188.672C212.958 188.51 212.958 188.347 212.958 188.185C212.958 187.414 211.725 187.414 211.725 188.185C211.725 188.347 211.725 188.51 211.725 188.672C211.725 189.443 212.958 189.443 212.958 188.672C212.958 187.292 212.834 185.912 212.588 184.533C212.465 183.843 211.397 184.046 211.397 184.695C211.356 185.994 211.191 187.414 211.356 188.713C211.438 189.321 211.725 189.89 212.424 190.011C214.477 190.417 213.861 186.44 213.697 185.466C213.574 184.695 213.45 183.518 212.711 183.072C212.095 182.706 211.438 183.072 211.068 183.64C210.041 185.344 210.616 187.86 211.561 189.403C211.849 190.092 212.916 189.484 212.506 188.834Z" fill="#352C9F"/>
<path d="M231.482 186.683C230.865 185.709 230.578 184.654 230.66 183.518C230.66 183.274 230.824 182.219 231.03 182.179C231.153 182.179 231.358 183.599 231.399 183.761C231.482 184.289 231.523 184.857 231.523 185.385C231.523 185.547 231.482 186.886 231.482 186.075C231.44 184.898 231.523 183.721 231.564 182.544C231.153 182.584 230.742 182.666 230.373 182.706C230.578 183.964 230.701 185.222 230.701 186.521C231.112 186.521 231.523 186.521 231.933 186.521C231.933 186.359 231.933 186.196 231.933 186.034C231.933 185.263 230.701 185.263 230.701 186.034C230.701 186.196 230.701 186.359 230.701 186.521C230.701 187.292 231.933 187.292 231.933 186.521C231.933 185.141 231.81 183.761 231.564 182.382C231.44 181.692 230.373 181.895 230.373 182.544C230.331 183.843 230.167 185.263 230.331 186.562C230.414 187.17 230.701 187.739 231.399 187.86C233.453 188.266 232.837 184.289 232.673 183.315C232.549 182.544 232.426 181.367 231.687 180.921C231.071 180.555 230.414 180.921 230.044 181.489C229.017 183.193 229.592 185.709 230.537 187.252C230.824 187.982 231.892 187.373 231.482 186.683Z" fill="#352C9F"/>
<path d="M206.427 192.568C207.207 192.568 207.207 191.35 206.427 191.35C205.647 191.35 205.647 192.568 206.427 192.568Z" fill="#352C9F"/>
<path d="M211.274 193.461C211.315 193.461 211.356 193.461 211.438 193.461C211.766 193.461 212.054 193.177 212.054 192.852C212.054 192.527 211.766 192.243 211.438 192.243C211.397 192.243 211.356 192.243 211.274 192.243C210.945 192.243 210.657 192.527 210.657 192.852C210.657 193.177 210.904 193.461 211.274 193.461Z" fill="#352C9F"/>
<path d="M208.398 197.194C209.179 197.194 209.179 195.977 208.398 195.977C207.618 195.977 207.577 197.194 208.398 197.194Z" fill="#352C9F"/>
<path d="M231.728 191.959C231.769 191.959 231.81 191.959 231.892 191.959C232.221 191.959 232.508 191.675 232.508 191.35C232.508 191.026 232.221 190.742 231.892 190.742C231.851 190.742 231.81 190.742 231.728 190.742C231.399 190.742 231.112 191.026 231.112 191.35C231.112 191.675 231.358 191.959 231.728 191.959Z" fill="#352C9F"/>
<path d="M236.246 188.956C237.026 188.956 237.026 187.739 236.246 187.739C235.466 187.739 235.466 188.956 236.246 188.956Z" fill="#352C9F"/>
<path d="M235.63 192.243C235.671 192.243 235.712 192.243 235.794 192.243C236.123 192.243 236.41 191.959 236.41 191.635C236.41 191.31 236.123 191.026 235.794 191.026C235.753 191.026 235.712 191.026 235.63 191.026C235.301 191.026 235.014 191.31 235.014 191.635C235.055 191.959 235.301 192.243 235.63 192.243Z" fill="#352C9F"/>
<path d="M216.079 208.923C215.422 207.99 214.354 206.65 214.806 205.433C215.34 204.053 217.024 204.256 218.133 204.418C219.488 204.621 220.597 204.865 221.911 204.459C222.979 204.134 223.924 203.444 224.91 202.917C227.251 201.618 230.003 201.496 230.742 204.54C232.837 212.86 217.968 215.213 215.668 207.908C215.422 207.178 214.231 207.462 214.477 208.233C217.311 217.202 234.891 213.874 231.81 203.931C231.276 202.267 230.003 200.847 228.196 200.644C225.238 200.36 223.308 203.282 220.474 203.485C218.379 203.647 215.833 202.064 214.149 204.012C212.629 205.758 213.861 207.99 214.97 209.532C215.463 210.181 216.531 209.572 216.079 208.923Z" fill="#352C9F"/>
<path d="M213.697 206.61C214.6 209.085 219.119 208.314 221.09 208.03C224.869 207.462 228.319 205.839 231.235 203.444C231.851 202.957 230.989 202.064 230.373 202.592C228.237 204.378 225.772 205.676 223.062 206.407C221.87 206.732 215.586 208.111 214.929 206.326C214.6 205.555 213.409 205.879 213.697 206.61Z" fill="#352C9F"/>
<path d="M221.008 224.426C225.813 225.643 232.221 222.64 234.932 218.704C235.383 218.054 234.316 217.446 233.864 218.095C231.481 221.544 225.526 224.304 221.336 223.249C220.556 223.046 220.227 224.223 221.008 224.426Z" fill="#352C9F"/>
<path d="M221.46 224.791C225.731 227.429 232.755 223.695 234.808 219.678C235.178 218.988 234.11 218.379 233.741 219.069C232.015 222.478 225.731 226.009 222.076 223.777C221.378 223.33 220.761 224.385 221.46 224.791Z" fill="#352C9F"/>
<path opacity="0.2" d="M238.505 181.773C238.793 183.234 239.162 185.547 239.409 188.347C239.984 195.815 240.969 208.314 233.33 216.634C231.687 218.42 228.196 221.585 221.747 223.371C223.801 223.29 226.306 223.046 229.017 222.356C230.373 222.032 231.605 221.626 232.714 221.179C232.878 224.791 233.001 228.403 233.165 232.015C234.562 231.122 235.917 230.27 237.314 229.377C235.425 225.238 235.425 222.031 235.671 220.002C236.041 217.161 237.109 214.848 238.176 212.535C239.121 210.506 240.107 208.882 240.887 207.746C240.969 208.598 241.175 209.491 241.75 210.343C244.255 214.037 252.1 214.402 257.029 211.236C261.588 208.314 263.806 202.389 262.656 196.302C263.436 196.951 264.258 197.722 265.038 198.655C265.654 199.386 267.256 201.496 269.474 208.923C270.172 211.236 270.501 212.413 270.706 213.59C270.953 215.213 271.405 218.298 270.542 221.788C269.063 227.794 264.669 231.244 263.354 232.218C262.41 232.908 259.534 234.978 255.222 235.952C253.168 236.398 247.007 237.859 241.216 234.531C239.039 233.273 237.848 232.34 237.191 231.203C236.492 229.945 236.41 228.768 236.328 227.875C235.958 222.316 235.794 219.515 236.164 217.608C237.273 212.089 239.778 211.52 241.175 205.23C241.668 202.957 241.791 201.05 241.832 199.832C242.366 199.914 243.187 199.995 244.173 199.751C246.227 199.224 247.254 197.56 247.623 196.951C249.102 194.638 249.759 190.498 247.459 188.591C247.13 188.307 245.98 187.454 243.762 187.617C242.078 185.669 240.312 183.721 238.505 181.773Z" fill="#3F3F3F"/>
<path opacity="0.13" d="M219.036 194.922C221.131 195.531 223.267 196.18 225.362 196.789C224.828 197.276 224.294 197.722 223.719 198.209C223.185 198.655 222.692 199.021 222.158 199.427C221.501 198.94 220.556 198.087 219.817 196.789C219.406 196.099 219.16 195.449 219.036 194.922Z" fill="#3F3F3F"/>
<path opacity="0.16" d="M186.096 199.995C181.619 215.619 184.946 228.241 191.641 231C196.898 233.151 206.386 230.108 208.152 224.791C208.398 224.101 208.645 222.884 207.7 219.15C206.879 215.863 205.195 210.912 201.416 205.271C200.759 204.865 199.896 204.215 199.075 203.241C197.637 201.496 197.227 199.63 197.103 198.737C198.294 199.954 200.02 201.496 201.128 201.009C202.196 200.522 202.854 199.061 202.484 197.6C202.854 199.467 203.429 202.024 204.496 204.987C205.893 208.923 207.289 212.738 210.534 216.35C212.013 218.014 214.929 220.733 219.858 222.681C220.679 223.695 222.199 225.887 222.692 229.093C222.774 229.58 223.062 231.812 222.322 234.612C222.158 235.262 221.172 238.792 217.927 241.836C214.149 245.408 209.631 246.057 208.152 246.26C197.021 247.721 188.396 238.103 186.876 236.439C185.356 234.734 182.851 231.893 181.413 227.51C179.113 220.53 180.879 214.24 182.153 209.654C183.344 205.352 184.946 202.105 186.096 199.995Z" fill="#3F3F3F"/>
</svg>
